<svg width="1188" height="943" viewBox="0 0 1188 943" fill="none" xmlns="http://www.w3.org/2000/svg">
<path d="M461.537 429.01C462.444 430.505 463.345 431.991 464.242 433.469C465.128 434.95 466.042 436.407 467.011 437.829C468.921 440.684 470.754 443.52 472.796 446.206C473.795 447.557 474.787 448.898 475.771 450.229C476.823 451.524 477.867 452.809 478.903 454.085C480.916 456.659 483.222 459.02 485.346 461.395C486.473 462.548 487.634 463.664 488.762 464.776C489.334 465.327 489.883 465.887 490.468 466.421C491.069 466.943 491.668 467.462 492.263 467.979C493.481 468.993 494.58 470.062 495.864 470.983C497.118 471.918 498.358 472.842 499.584 473.757C500.897 474.59 502.196 475.415 503.48 476.229C504.771 477.028 506.187 477.686 507.507 478.391C512.943 481.044 518.868 482.725 524.708 482.704C530.562 482.667 536.011 480.723 540.041 477.936C544.118 475.148 546.914 471.692 548.848 468.404C550.786 465.097 551.899 461.905 552.572 459.096C552.659 458.778 552.731 458.463 552.797 458.151C557.699 460.706 562.817 462.843 568.099 464.481C573.476 466.186 579.032 467.302 584.619 467.881C587.412 468.255 590.217 468.282 593.019 468.409C595.811 468.338 598.62 468.38 601.386 468.07C606.957 467.692 612.397 466.609 617.737 465.331C619.056 464.956 620.372 464.583 621.686 464.21L623.658 463.645L625.544 462.982C628.056 462.086 630.557 461.193 633.048 460.304C634.287 459.833 635.559 459.46 636.764 458.907C637.977 458.371 639.187 457.836 640.395 457.301C642.804 456.213 645.236 455.192 647.603 454.043C652.222 451.488 656.955 449.204 661.26 446.18C665.738 443.454 669.791 440.114 673.871 436.89C675.787 435.109 677.694 433.337 679.592 431.573C680.569 430.719 681.412 429.723 682.289 428.768C683.16 427.805 684.028 426.844 684.895 425.885C691.679 418.072 697.182 409.26 701.056 399.944L701.801 398.207C702.038 397.625 702.227 397.024 702.441 396.434C702.853 395.248 703.265 394.064 703.675 392.884C704.117 391.713 704.39 390.493 704.735 389.298C705.055 388.096 705.408 386.904 705.692 385.7C706.776 380.865 707.546 376.01 707.892 371.143L708.203 368.795C710.912 363.715 712.79 358.222 713.799 352.682C714.816 347.139 714.986 341.57 714.522 336.218C714.05 330.862 712.994 325.703 711.445 320.835C710.686 318.393 709.793 316.025 708.821 313.705C708.334 312.584 707.83 311.473 707.292 310.371C708.129 307.35 708.786 304.31 709.26 301.282C710.24 295.134 710.549 289.021 710.293 283.057C710.14 280.075 709.888 277.126 709.47 274.209C709.316 273.175 709.129 272.145 708.943 271.115C711.769 270.181 714.597 269.246 717.41 268.315C721.871 266.903 726.313 265.371 730.678 263.435L733.948 261.975L737.176 260.321C738.256 259.794 739.314 259.171 740.367 258.53C741.417 257.878 742.488 257.316 743.513 256.582C747.665 253.871 751.657 250.502 755.1 246.318L755.75 245.543L756.35 244.699L757.536 242.999C758.318 241.861 758.956 240.569 759.645 239.347C760.853 236.763 761.899 234.039 762.423 231.171C763.625 225.449 763.058 219.574 761.539 214.427C759.987 209.251 757.587 204.694 754.668 200.589C753.935 199.557 753.16 198.561 752.3 197.54L751.525 196.658C751.178 196.27 750.779 195.899 750.423 195.583C749.844 195.069 749.342 194.647 748.818 194.237C746.757 192.627 744.716 191.258 742.609 190.057C738.417 187.614 734.047 185.804 729.624 184.389C725.193 183.008 720.706 182.12 716.254 181.552C707.336 180.526 698.584 180.96 690.339 182.391C682.081 183.819 674.324 186.216 667.053 189.062C665.252 189.809 663.404 190.444 661.68 191.278C659.939 192.081 658.209 192.878 656.49 193.67C654.769 194.458 653.148 195.384 651.492 196.228C649.86 197.109 648.187 197.904 646.637 198.86C633.956 206.105 622.97 214.234 613.263 222.277C610.869 224.322 608.519 226.329 606.215 228.298C603.993 230.345 601.815 232.352 599.683 234.316C597.53 236.255 595.525 238.253 593.569 240.205C591.567 242.194 589.611 244.137 587.703 246.031C587.256 246.568 586.812 247.101 586.371 247.63C585.97 248.1 585.572 248.567 585.177 249.03C584.366 249.949 583.565 250.856 582.776 251.751C581.175 253.528 579.58 255.227 578.005 256.853C574.843 260.087 571.767 263.036 568.775 265.625C568.072 266.236 567.376 266.826 566.684 267.4C567.132 266.201 567.584 265.004 567.997 263.795C570.311 256.937 572.068 249.904 573.112 242.735C574.148 235.57 574.386 228.236 573.62 220.957C572.856 213.685 571.015 206.466 568.027 199.787C565.053 193.103 560.959 187.01 556.178 181.797C551.337 176.631 545.886 172.376 540.27 168.712C538.831 167.875 537.396 167.04 535.964 166.207C535.246 165.8 534.539 165.364 533.813 164.984L531.614 163.915C530.15 163.207 528.69 162.502 527.234 161.799C525.758 161.147 524.262 160.556 522.783 159.939C516.785 157.608 510.53 155.675 503.723 154.971C500.292 154.694 496.762 154.648 493.114 155.287C489.479 155.954 485.761 157.286 482.498 159.484C479.227 161.66 476.551 164.647 474.698 167.83C472.826 171.022 471.691 174.375 471.018 177.644C469.749 184.208 470.098 190.483 471.418 196.477C472.106 199.479 473.051 202.414 474.492 205.334C474.888 206.07 475.211 206.786 475.699 207.525L476.39 208.618C476.614 208.958 476.796 209.195 477.001 209.488C477.783 210.559 478.562 211.626 479.337 212.687C482.372 216.78 485.134 220.643 487.464 224.647C489.819 228.627 491.742 232.69 493.232 236.81C496.244 245.041 497.384 253.51 497.08 261.628C496.803 269.752 495.25 277.515 493.029 284.655C490.811 291.817 488.057 298.366 485.044 304.382C481.244 312.374 478.703 319.999 477.128 326.988C475.251 327.185 473.38 327.496 471.502 327.92C467.612 328.812 463.744 330.217 460.107 332.29C456.476 334.357 453.088 337.119 450.315 340.489C447.528 343.851 445.398 347.768 443.904 351.859L442.925 354.964C442.612 356.004 442.452 357.052 442.217 358.103C441.703 360.215 441.599 362.3 441.352 364.412C441.218 366.501 441.218 368.577 441.223 370.652C441.369 372.681 441.449 374.747 441.691 376.751C442.621 384.8 444.747 392.355 447.342 399.475C448.564 403.093 450.107 406.475 451.551 409.894C452.286 411.595 453.129 413.21 453.915 414.858C454.727 416.486 455.485 418.148 456.347 419.719C458.083 422.854 459.728 426.017 461.537 429.01ZM473.862 415.643C473.061 414.221 472.268 412.813 471.482 411.418C470.7 410.022 470.014 408.611 469.277 407.232C463.49 396.185 458.864 385.731 456.393 376.097C453.737 366.468 453.527 357.74 455.668 350.683C456.739 347.155 458.413 344.057 460.408 341.435C462.409 338.816 464.718 336.698 466.97 334.964C470.55 332.223 473.949 330.465 476.648 329.257C475.985 332.575 475.539 335.739 475.282 338.714C474.408 348.516 475.773 356.17 477.275 361.054C477.463 361.667 477.64 362.243 477.806 362.782C478.004 363.311 478.189 363.804 478.36 364.259C478.688 365.174 478.995 365.927 479.281 366.518C479.82 367.709 480.095 368.317 480.095 368.317C476.781 359.652 476.207 350.368 477.391 341.576C478.003 336.83 479.088 332.197 480.496 327.688L480.789 326.77C481.939 323.214 483.28 319.734 484.773 316.349C486.538 312.385 488.53 308.493 490.748 304.886C491.109 304.312 491.315 303.859 491.594 303.365L492.383 301.904C492.901 300.926 493.454 299.965 493.941 298.971C494.89 296.971 495.946 295.02 496.797 292.974C498.652 288.948 500.167 284.773 501.556 280.555C502.844 276.304 503.923 271.979 504.652 267.574C506.046 258.766 506.091 249.648 504.36 240.823C502.67 231.994 499.231 223.581 494.89 215.991C492.728 212.198 490.337 208.578 488.051 205.157L486.413 202.647C486.108 202.197 485.999 201.932 485.805 201.599C485.618 201.3 485.462 200.924 485.298 200.566C484.656 199.114 484.088 197.492 483.714 195.783C482.935 192.387 482.614 188.775 482.874 185.355C482.955 183.629 483.285 181.986 483.63 180.391C484.072 178.846 484.552 177.334 485.255 176.046C485.947 174.757 486.713 173.574 487.662 172.671C488.084 172.154 488.637 171.814 489.112 171.385C489.367 171.191 489.66 171.05 489.924 170.872C490.191 170.699 490.449 170.512 490.763 170.4C493.075 169.261 495.937 168.752 499.105 168.877C502.268 168.993 505.638 169.695 508.992 170.653C510.677 171.225 512.358 171.701 514.033 172.412L516.543 173.402L519.035 174.529C525.62 177.635 531.861 181.233 537.202 185.586C542.558 189.922 547.003 194.991 550.243 200.622C553.498 206.247 555.564 212.414 556.563 218.804C557.602 225.192 557.419 231.818 556.579 238.349C555.748 244.892 554.071 251.362 551.955 257.627C550.868 260.752 549.676 263.834 548.36 266.835C547.698 268.332 547.015 269.815 546.301 271.259C545.944 271.984 545.584 272.698 545.216 273.394C544.867 274.064 544.441 274.836 544.172 275.305C542.043 279.352 539.522 282.307 539.522 282.307C544.636 282.228 551.841 279.829 551.841 279.829C556.092 278.608 563.621 274.923 563.621 274.923C565.1 274.126 566.554 273.293 567.982 272.429C572.76 269.494 577.281 266.231 581.583 262.784C583.736 261.061 585.836 259.292 587.885 257.48C588.908 256.571 589.924 255.658 590.923 254.726C591.874 253.82 592.823 252.916 593.769 252.015C615.054 234.474 637.137 218.922 659.619 208.878C670.834 203.799 682.226 200.302 693.301 198.724C704.368 197.186 715.148 197.863 724.601 200.931C726.942 201.735 729.227 202.616 731.365 203.683C733.494 204.746 735.527 205.945 737.293 207.225C737.717 207.538 738.162 207.87 738.508 208.164C738.671 208.291 738.934 208.526 738.884 208.479C738.906 208.505 738.807 208.385 739.034 208.646C739.677 209.38 740.366 210.276 740.989 211.161C742.242 212.956 743.332 214.845 744.163 216.731C745.847 220.526 746.42 224.207 745.965 227.546C745.524 230.893 743.901 234.091 741.437 237.09C738.98 240.086 735.682 242.759 732.121 245.087L730.796 245.973L729.4 246.787C728.462 247.32 727.553 247.879 726.606 248.392C724.65 249.346 722.799 250.409 720.793 251.244C719.808 251.686 718.828 252.127 717.855 252.564C716.872 252.992 715.858 253.363 714.87 253.764C712.8 254.598 710.754 255.422 708.732 256.237C706.634 257.098 704.562 257.949 702.516 258.789C701.497 259.214 700.485 259.637 699.479 260.057C698.499 260.536 697.524 261.013 696.557 261.486C680.983 268.854 668.187 277.496 657.933 285.914C647.668 294.351 639.902 302.56 634.09 309.547C628.287 316.558 624.446 322.376 622.009 326.354C620.781 328.337 619.938 329.894 619.382 330.93C618.825 331.974 618.585 332.494 618.585 332.494C629.816 318.434 643.713 306.556 658.293 296.44C669.237 289.031 680.723 282.625 692.58 277.404C692.884 279.395 693.154 281.389 693.312 283.381C693.708 287.899 693.75 292.373 693.443 296.714C693.139 301.057 692.486 305.264 691.563 309.307C690.604 313.341 689.29 317.169 687.794 320.822C684.672 328.067 680.47 334.41 675.776 339.779C671.066 345.141 665.938 349.585 660.908 353.239C659.668 354.177 658.36 354.96 657.137 355.803C655.891 356.61 654.724 357.484 653.479 358.153C652.256 358.865 651.068 359.557 649.917 360.227C649.341 360.565 648.773 360.898 648.214 361.225C647.638 361.519 647.071 361.808 646.513 362.092C644.271 363.204 642.216 364.337 640.258 365.232C638.284 366.111 636.484 366.913 634.867 367.634C633.258 368.398 631.774 368.927 630.503 369.429C629.228 369.929 628.15 370.352 627.28 370.694C625.538 371.389 624.627 371.752 624.627 371.752C638.112 370.162 651.267 366.809 663.398 361.161C669.382 358.224 675.243 354.92 680.427 350.714C685.651 346.583 690.404 341.854 694.435 336.599C695.438 335.276 696.392 333.922 697.297 332.543C697.605 333.755 697.888 334.965 698.119 336.169C698.787 339.646 699.133 343.074 699.189 346.411C699.175 349.74 698.868 352.967 698.292 356.073C697.247 361.198 695.366 365.93 692.955 370.18C692.955 370.18 690.93 373.584 690.173 374.576C687.281 378.67 683.957 382.192 680.691 385.287C676.826 388.711 673.087 391.662 669.593 393.984C668.72 394.571 667.878 395.138 667.068 395.683C666.265 396.244 665.473 396.756 664.687 397.2C663.131 398.133 661.711 398.984 660.436 399.748C657.863 401.26 655.78 402.279 654.409 403.06C653.026 403.82 652.302 404.218 652.302 404.218C663.526 401.999 674.375 398.369 684.21 392.705L686.059 391.652L686.114 391.615C686.007 391.908 685.909 392.205 685.798 392.496C685.059 394.241 684.402 396.014 683.626 397.727C682.788 399.415 681.954 401.094 681.125 402.766C680.165 404.373 679.209 405.972 678.258 407.564C677.818 408.382 677.231 409.108 676.704 409.868C676.167 410.624 675.632 411.377 675.097 412.128C670.697 418.045 665.749 423.477 660.185 428.077C659.501 428.665 658.819 429.25 658.138 429.834C657.452 430.412 656.805 431.031 656.054 431.53C654.601 432.585 653.156 433.633 651.721 434.675C651.004 435.199 650.289 435.722 649.576 436.243C648.868 436.77 648.077 437.185 647.336 437.661C645.831 438.588 644.337 439.508 642.852 440.422C642.11 440.882 641.37 441.34 640.633 441.797C639.872 442.217 639.09 442.601 638.324 443.004C636.785 443.803 635.257 444.596 633.74 445.384C630.758 447.062 627.586 448.3 624.531 449.654C622.997 450.324 621.476 450.989 619.967 451.648C618.459 452.265 616.968 452.755 615.485 453.314C614.012 453.899 612.511 454.309 611.028 454.752C609.546 455.197 608.079 455.661 606.595 455.962C605.115 456.282 603.657 456.696 602.191 456.941C600.722 457.188 599.267 457.434 597.826 457.677C594.928 458.002 592.074 458.334 589.264 458.386C583.649 458.572 578.239 458.19 573.129 457.374C565.901 456.132 559.307 454.093 553.433 451.652L552.05 451.073C550.132 450.24 548.291 449.368 546.543 448.464C542.821 446.573 539.452 444.595 536.456 442.612C533.445 440.648 530.779 438.713 528.455 436.88C523.78 433.238 520.441 430.056 518.228 427.869C517.134 426.765 516.315 425.908 515.785 425.322C515.264 424.743 514.999 424.446 514.999 424.446C518.061 429.111 521.766 433.491 525.643 437.584C529.567 441.656 533.779 445.445 538.262 448.876C542.023 451.761 545.997 454.368 550.129 456.689C549.799 457.418 549.453 458.135 549.071 458.827C547.002 462.634 544.193 465.864 541.078 468.296C537.947 470.735 534.38 472.147 530.92 472.576C527.441 473.007 524.02 472.427 520.79 471.178C514.317 468.64 508.607 463.932 503.612 458.692C501.094 456.081 498.751 453.298 496.494 450.495C495.389 449.061 494.293 447.638 493.204 446.225C492.163 444.756 491.129 443.298 490.103 441.851C489.049 440.435 488.104 438.921 487.129 437.458C486.171 435.977 485.161 434.566 484.253 433.074C482.448 430.082 480.541 427.251 478.868 424.285C477.152 421.358 475.406 418.51 473.862 415.643Z" fill="#393838"/>
<path opacity="0.69" d="M582.881 14.4395C553.124 6.46601 522.597 23.8665 514.708 53.3119C508.339 77.0815 502.653 136.022 580.202 217.923C581.594 219.38 583.359 220.426 585.306 220.948C587.252 221.469 589.304 221.446 591.238 220.88C699.348 188.726 723.894 134.84 730.264 111.07C738.153 81.6246 720.417 51.292 690.659 43.3185C660.902 35.345 628.113 61.1893 628.113 61.1893C628.113 61.1893 612.639 22.413 582.881 14.4395Z" fill="#5D2DC3" fill-opacity="0.84"/>
<path d="M213.782 625.672H238.757L226.607 590.302H226.337L213.782 625.672ZM215.807 566.542H237.542L273.587 662.932H251.582L244.292 641.467H208.247L200.687 662.932H179.357L215.807 566.542ZM280.414 593.137H298.504V602.587H298.774C301.294 598.987 304.309 596.197 307.819 594.217C311.419 592.237 315.514 591.247 320.104 591.247C324.514 591.247 328.519 592.102 332.119 593.812C335.809 595.522 338.599 598.537 340.489 602.857C342.559 599.797 345.349 597.097 348.859 594.757C352.459 592.417 356.689 591.247 361.549 591.247C365.239 591.247 368.659 591.697 371.809 592.597C374.959 593.497 377.659 594.937 379.909 596.917C382.159 598.897 383.914 601.507 385.174 604.747C386.434 607.897 387.064 611.722 387.064 616.222V662.932H367.894V623.377C367.894 621.037 367.804 618.832 367.624 616.762C367.444 614.692 366.949 612.892 366.139 611.362C365.329 609.832 364.114 608.617 362.494 607.717C360.964 606.817 358.849 606.367 356.149 606.367C353.449 606.367 351.244 606.907 349.534 607.987C347.914 608.977 346.609 610.327 345.619 612.037C344.719 613.657 344.089 615.547 343.729 617.707C343.459 619.777 343.324 621.892 343.324 624.052V662.932H324.154V623.782C324.154 621.712 324.109 619.687 324.019 617.707C323.929 615.637 323.524 613.747 322.804 612.037C322.174 610.327 321.049 608.977 319.429 607.987C317.899 606.907 315.604 606.367 312.544 606.367C311.644 606.367 310.429 606.592 308.899 607.042C307.459 607.402 306.019 608.167 304.579 609.337C303.229 610.417 302.059 612.037 301.069 614.197C300.079 616.267 299.584 619.012 299.584 622.432V662.932H280.414V593.137ZM436.643 671.572C434.573 677.242 431.693 681.292 428.003 683.722C424.313 686.152 419.183 687.367 412.613 687.367C410.633 687.367 408.653 687.277 406.673 687.097C404.783 687.007 402.848 686.872 400.868 686.692V670.897C402.668 671.077 404.513 671.257 406.403 671.437C408.293 671.617 410.183 671.662 412.073 671.572C414.593 671.302 416.438 670.312 417.608 668.602C418.868 666.892 419.498 665.002 419.498 662.932C419.498 661.402 419.228 659.962 418.688 658.612L394.253 593.137H414.638L430.433 640.927H430.703L445.958 593.137H465.803L436.643 671.572ZM474.113 566.542H493.283V587.197C493.373 590.167 492.923 592.957 491.933 595.567C491.033 598.177 489.728 600.472 488.018 602.452C486.308 604.432 484.238 606.097 481.808 607.447C479.468 608.707 476.903 609.517 474.113 609.877V600.967C477.533 599.797 479.873 598.087 481.133 595.837C482.393 593.497 483.023 590.662 483.023 587.332H474.113V566.542ZM514.626 640.252C514.626 642.322 515.031 644.122 515.841 645.652C516.741 647.092 517.866 648.307 519.216 649.297C520.566 650.197 522.096 650.872 523.806 651.322C525.606 651.772 527.451 651.997 529.341 651.997C530.691 651.997 532.086 651.862 533.526 651.592C535.056 651.232 536.406 650.737 537.576 650.107C538.836 649.387 539.871 648.487 540.681 647.407C541.491 646.237 541.896 644.797 541.896 643.087C541.896 640.207 539.961 638.047 536.091 636.607C532.311 635.167 527.001 633.727 520.161 632.287C517.371 631.657 514.626 630.937 511.926 630.127C509.316 629.227 506.976 628.102 504.906 626.752C502.836 625.312 501.171 623.557 499.911 621.487C498.651 619.327 498.021 616.717 498.021 613.657C498.021 609.157 498.876 605.467 500.586 602.587C502.386 599.707 504.726 597.457 507.606 595.837C510.486 594.127 513.726 592.957 517.326 592.327C520.926 591.607 524.616 591.247 528.396 591.247C532.176 591.247 535.821 591.607 539.331 592.327C542.931 593.047 546.126 594.262 548.916 595.972C551.706 597.682 554.001 599.977 555.801 602.857C557.691 605.647 558.816 609.202 559.176 613.522H540.951C540.681 609.832 539.286 607.357 536.766 606.097C534.246 604.747 531.276 604.072 527.856 604.072C526.776 604.072 525.606 604.162 524.346 604.342C523.086 604.432 521.916 604.702 520.836 605.152C519.846 605.602 518.991 606.277 518.271 607.177C517.551 607.987 517.191 609.112 517.191 610.552C517.191 612.262 517.821 613.657 519.081 614.737C520.341 615.817 521.961 616.717 523.941 617.437C526.011 618.067 528.351 618.652 530.961 619.192C533.571 619.732 536.226 620.317 538.926 620.947C541.716 621.577 544.416 622.342 547.026 623.242C549.726 624.142 552.111 625.357 554.181 626.887C556.251 628.327 557.916 630.172 559.176 632.422C560.436 634.582 561.066 637.282 561.066 640.522C561.066 645.112 560.121 648.982 558.231 652.132C556.431 655.192 554.046 657.667 551.076 659.557C548.106 661.447 544.686 662.752 540.816 663.472C537.036 664.282 533.166 664.687 529.206 664.687C525.156 664.687 521.196 664.282 517.326 663.472C513.456 662.662 509.991 661.312 506.931 659.422C503.961 657.532 501.486 655.057 499.506 651.997C497.616 648.847 496.581 644.932 496.401 640.252H514.626ZM611.884 566.542H633.079V603.532H672.094V566.542H693.289V662.932H672.094V621.352H633.079V662.932H611.884V566.542ZM709.113 614.602C709.383 610.102 710.508 606.367 712.488 603.397C714.468 600.427 716.988 598.042 720.048 596.242C723.108 594.442 726.528 593.182 730.308 592.462C734.178 591.652 738.048 591.247 741.918 591.247C745.428 591.247 748.983 591.517 752.583 592.057C756.183 592.507 759.468 593.452 762.438 594.892C765.408 596.332 767.838 598.357 769.728 600.967C771.618 603.487 772.563 606.862 772.563 611.092V647.407C772.563 650.557 772.743 653.572 773.103 656.452C773.463 659.332 774.093 661.492 774.993 662.932H755.553C755.193 661.852 754.878 660.772 754.608 659.692C754.428 658.522 754.293 657.352 754.203 656.182C751.143 659.332 747.543 661.537 743.403 662.797C739.263 664.057 735.033 664.687 730.713 664.687C727.383 664.687 724.278 664.282 721.398 663.472C718.518 662.662 715.998 661.402 713.838 659.692C711.678 657.982 709.968 655.822 708.708 653.212C707.538 650.602 706.953 647.497 706.953 643.897C706.953 639.937 707.628 636.697 708.978 634.177C710.418 631.567 712.218 629.497 714.378 627.967C716.628 626.437 719.148 625.312 721.938 624.592C724.818 623.782 727.698 623.152 730.578 622.702C733.458 622.252 736.293 621.892 739.083 621.622C741.873 621.352 744.348 620.947 746.508 620.407C748.668 619.867 750.378 619.102 751.638 618.112C752.898 617.032 753.483 615.502 753.393 613.522C753.393 611.452 753.033 609.832 752.313 608.662C751.683 607.402 750.783 606.457 749.613 605.827C748.533 605.107 747.228 604.657 745.698 604.477C744.258 604.207 742.683 604.072 740.973 604.072C737.193 604.072 734.223 604.882 732.063 606.502C729.903 608.122 728.643 610.822 728.283 614.602H709.113ZM753.393 628.777C752.583 629.497 751.548 630.082 750.288 630.532C749.118 630.892 747.813 631.207 746.373 631.477C745.023 631.747 743.583 631.972 742.053 632.152C740.523 632.332 738.993 632.557 737.463 632.827C736.023 633.097 734.583 633.457 733.143 633.907C731.793 634.357 730.578 634.987 729.498 635.797C728.508 636.517 727.698 637.462 727.068 638.632C726.438 639.802 726.123 641.287 726.123 643.087C726.123 644.797 726.438 646.237 727.068 647.407C727.698 648.577 728.553 649.522 729.633 650.242C730.713 650.872 731.973 651.322 733.413 651.592C734.853 651.862 736.338 651.997 737.868 651.997C741.648 651.997 744.573 651.367 746.643 650.107C748.713 648.847 750.243 647.362 751.233 645.652C752.223 643.852 752.808 642.052 752.988 640.252C753.258 638.452 753.393 637.012 753.393 635.932V628.777ZM826.052 662.932H804.722L780.827 593.137H800.942L815.657 640.792H815.927L830.642 593.137H849.677L826.052 662.932ZM904.559 620.542C903.659 615.682 902.039 611.992 899.699 609.472C897.449 606.952 893.984 605.692 889.304 605.692C886.244 605.692 883.679 606.232 881.609 607.312C879.629 608.302 878.009 609.562 876.749 611.092C875.579 612.622 874.724 614.242 874.184 615.952C873.734 617.662 873.464 619.192 873.374 620.542H904.559ZM873.374 632.692C873.644 638.902 875.219 643.402 878.099 646.192C880.979 648.982 885.119 650.377 890.519 650.377C894.389 650.377 897.719 649.432 900.509 647.542C903.299 645.562 905.009 643.492 905.639 641.332H922.514C919.814 649.702 915.674 655.687 910.094 659.287C904.514 662.887 897.764 664.687 889.844 664.687C884.354 664.687 879.404 663.832 874.994 662.122C870.584 660.322 866.849 657.802 863.789 654.562C860.729 651.322 858.344 647.452 856.634 642.952C855.014 638.452 854.204 633.502 854.204 628.102C854.204 622.882 855.059 618.022 856.769 613.522C858.479 609.022 860.909 605.152 864.059 601.912C867.209 598.582 870.944 595.972 875.264 594.082C879.674 592.192 884.534 591.247 889.844 591.247C895.784 591.247 900.959 592.417 905.369 594.757C909.779 597.007 913.379 600.067 916.169 603.937C919.049 607.807 921.119 612.217 922.379 617.167C923.639 622.117 924.089 627.292 923.729 632.692H873.374ZM935.099 593.137H953.324V602.857H953.729C956.159 598.807 959.309 595.882 963.179 594.082C967.049 592.192 971.009 591.247 975.059 591.247C980.189 591.247 984.374 591.967 987.614 593.407C990.944 594.757 993.554 596.692 995.444 599.212C997.334 601.642 998.639 604.657 999.359 608.257C1000.17 611.767 1000.57 615.682 1000.57 620.002V662.932H981.404V623.512C981.404 617.752 980.504 613.477 978.704 610.687C976.904 607.807 973.709 606.367 969.119 606.367C963.899 606.367 960.119 607.942 957.779 611.092C955.439 614.152 954.269 619.237 954.269 626.347V662.932H935.099V593.137Z" fill="black"/>
<path d="M241.014 776.357C244.514 777.657 247.139 779.507 248.889 781.907C250.689 784.307 251.589 787.157 251.589 790.457C251.589 795.057 249.914 798.882 246.564 801.932C243.264 804.932 238.939 806.432 233.589 806.432H218.214V751.532H229.389C235.189 751.532 239.589 752.732 242.589 755.132C245.639 757.482 247.164 760.857 247.164 765.257C247.164 770.057 245.114 773.757 241.014 776.357ZM224.589 774.032H227.139C231.639 774.032 234.989 773.332 237.189 771.932C239.439 770.532 240.564 768.307 240.564 765.257C240.564 760.307 237.139 757.832 230.289 757.832H224.589V774.032ZM224.589 800.132H230.739C234.589 800.132 237.389 799.757 239.139 799.007C240.889 798.257 242.289 797.107 243.339 795.557C244.389 794.007 244.914 792.432 244.914 790.832C244.914 789.232 244.589 787.832 243.939 786.632C243.339 785.382 242.414 784.282 241.164 783.332C239.964 782.382 238.464 781.682 236.664 781.232C234.914 780.732 231.714 780.482 227.064 780.482H224.589V800.132ZM314.83 787.082H278.98C279.23 791.582 280.73 795.207 283.48 797.957C286.28 800.657 289.605 802.007 293.455 802.007C300.005 802.007 305.005 798.782 308.455 792.332L313.705 795.032C311.355 799.382 308.58 802.607 305.38 804.707C302.18 806.757 298.355 807.782 293.905 807.782C287.755 807.782 282.68 805.682 278.68 801.482C274.68 797.232 272.68 792.132 272.68 786.182C272.68 780.232 274.68 775.132 278.68 770.882C282.73 766.632 287.73 764.507 293.68 764.507C299.63 764.507 304.605 766.532 308.605 770.582C312.605 774.582 314.68 780.082 314.83 787.082ZM307.93 781.607C307.18 778.107 305.48 775.382 302.83 773.432C300.18 771.482 297.13 770.507 293.68 770.507C286.68 770.507 282.03 774.207 279.73 781.607H307.93ZM378.31 806.432H372.235V800.432C367.785 805.332 362.66 807.782 356.86 807.782C351.06 807.782 346.085 805.657 341.935 801.407C337.835 797.107 335.785 792.007 335.785 786.107C335.785 780.157 337.86 775.082 342.01 770.882C346.16 766.632 351.21 764.507 357.16 764.507C363.16 764.507 368.185 766.932 372.235 771.782V765.557H378.31V806.432ZM357.31 802.007C361.46 802.007 365.035 800.507 368.035 797.507C371.035 794.507 372.535 790.782 372.535 786.332C372.535 781.832 371.06 778.082 368.11 775.082C365.16 772.032 361.535 770.507 357.235 770.507C352.985 770.507 349.385 772.082 346.435 775.232C343.485 778.332 342.01 782.007 342.01 786.257C342.01 790.507 343.51 794.207 346.51 797.357C349.51 800.457 353.11 802.007 357.31 802.007ZM438.281 806.432H432.056V800.282C428.006 805.082 423.206 807.482 417.656 807.482C414.706 807.482 412.031 806.732 409.631 805.232C407.231 803.682 405.431 801.582 404.231 798.932C403.031 796.232 402.431 792.107 402.431 786.557V765.557H408.581V785.057C408.581 789.557 408.781 792.632 409.181 794.282C409.631 795.882 410.256 797.257 411.056 798.407C411.906 799.507 412.956 800.332 414.206 800.882C415.506 801.432 417.056 801.707 418.856 801.707C420.706 801.707 422.506 801.257 424.256 800.357C426.006 799.457 427.506 798.207 428.756 796.607C430.006 795.007 430.856 793.307 431.306 791.507C431.806 789.707 432.056 786.107 432.056 780.707V765.557H438.281V806.432ZM481.736 770.957H473.636V799.607C473.636 800.657 473.786 801.307 474.086 801.557C474.386 801.757 475.136 801.857 476.336 801.857H479.936V807.182C477.536 807.582 475.711 807.782 474.461 807.782C472.061 807.782 470.286 807.207 469.136 806.057C467.986 804.857 467.411 802.982 467.411 800.432V770.957H460.361V765.557H467.411V750.182H473.636V765.557H481.736V770.957ZM504.901 750.182C506.251 750.182 507.376 750.657 508.276 751.607C509.226 752.507 509.701 753.632 509.701 754.982C509.701 756.282 509.226 757.407 508.276 758.357C507.376 759.257 506.251 759.707 504.901 759.707C503.601 759.707 502.476 759.232 501.526 758.282C500.626 757.332 500.176 756.232 500.176 754.982C500.176 753.682 500.626 752.557 501.526 751.607C502.476 750.657 503.601 750.182 504.901 750.182ZM508.051 806.432H501.826V765.557H508.051V806.432ZM549.316 757.532C546.916 756.532 545.041 756.032 543.691 756.032C542.341 756.032 541.466 756.482 541.066 757.382C540.666 758.232 540.466 759.682 540.466 761.732V765.557H548.791V770.957H540.466V806.432H534.241V770.957H529.066V765.557H534.241V760.907C534.241 757.207 534.916 754.507 536.266 752.807C537.666 751.057 539.841 750.182 542.791 750.182C544.391 750.182 546.566 750.557 549.316 751.307V757.532ZM604.925 806.432H598.7V800.282C594.65 805.082 589.85 807.482 584.3 807.482C581.35 807.482 578.675 806.732 576.275 805.232C573.875 803.682 572.075 801.582 570.875 798.932C569.675 796.232 569.075 792.107 569.075 786.557V765.557H575.225V785.057C575.225 789.557 575.425 792.632 575.825 794.282C576.275 795.882 576.9 797.257 577.7 798.407C578.55 799.507 579.6 800.332 580.85 800.882C582.15 801.432 583.7 801.707 585.5 801.707C587.35 801.707 589.15 801.257 590.9 800.357C592.65 799.457 594.15 798.207 595.4 796.607C596.65 795.007 597.5 793.307 597.95 791.507C598.45 789.707 598.7 786.107 598.7 780.707V765.557H604.925V806.432ZM634.954 806.432H628.804V750.182H634.954V806.432ZM717.919 757.832H705.919V806.432H699.394V757.832H687.319V751.532H717.919V757.832ZM773.853 806.432H767.628V786.932C767.628 783.132 767.503 780.457 767.253 778.907C767.053 777.357 766.553 775.907 765.753 774.557C764.953 773.157 763.853 772.107 762.453 771.407C761.103 770.657 759.453 770.282 757.503 770.282C755.603 770.282 753.778 770.732 752.028 771.632C750.278 772.532 748.778 773.782 747.528 775.382C746.278 776.982 745.403 778.682 744.903 780.482C744.453 782.282 744.228 785.882 744.228 791.282V806.432H738.003V750.182H744.228V771.707C748.278 766.907 753.078 764.507 758.628 764.507C761.578 764.507 764.253 765.282 766.653 766.832C769.053 768.332 770.853 770.432 772.053 773.132C773.253 775.782 773.853 779.882 773.853 785.432V806.432ZM800.354 750.182C801.704 750.182 802.829 750.657 803.729 751.607C804.679 752.507 805.154 753.632 805.154 754.982C805.154 756.282 804.679 757.407 803.729 758.357C802.829 759.257 801.704 759.707 800.354 759.707C799.054 759.707 797.929 759.232 796.979 758.282C796.079 757.332 795.629 756.232 795.629 754.982C795.629 753.682 796.079 752.557 796.979 751.607C797.929 750.657 799.054 750.182 800.354 750.182ZM803.504 806.432H797.279V765.557H803.504V806.432ZM863.144 806.432H856.994V786.932C856.994 782.432 856.769 779.382 856.319 777.782C855.919 776.132 855.294 774.757 854.444 773.657C853.644 772.507 852.594 771.657 851.294 771.107C850.044 770.557 848.494 770.282 846.644 770.282C844.844 770.282 843.069 770.732 841.319 771.632C839.569 772.532 838.069 773.782 836.819 775.382C835.569 776.982 834.694 778.682 834.194 780.482C833.744 782.282 833.519 785.882 833.519 791.282V806.432H827.294V765.557H833.519V771.707C837.569 766.907 842.369 764.507 847.919 764.507C850.869 764.507 853.544 765.282 855.944 766.832C858.344 768.332 860.144 770.432 861.344 773.132C862.544 775.782 863.144 779.882 863.144 785.432V806.432ZM928.195 796.832C928.195 802.232 927.72 806.232 926.77 808.832C925.87 811.432 924.47 813.632 922.57 815.432C920.72 817.232 918.47 818.582 915.82 819.482C913.22 820.432 910.345 820.907 907.195 820.907C896.545 820.907 889.445 816.407 885.895 807.407H892.495C895.395 812.607 900.22 815.207 906.97 815.207C910.07 815.207 912.845 814.607 915.295 813.407C917.745 812.207 919.47 810.607 920.47 808.607C921.47 806.607 921.97 803.532 921.97 799.382V799.007C920.02 801.207 917.67 802.882 914.92 804.032C912.17 805.182 909.32 805.757 906.37 805.757C900.47 805.757 895.52 803.732 891.52 799.682C887.57 795.632 885.62 790.857 885.67 785.357C885.62 779.607 887.695 774.707 891.895 770.657C896.095 766.557 901.07 764.507 906.82 764.507C912.62 764.507 917.67 766.857 921.97 771.557V765.557H928.195V796.832ZM922.195 785.357C922.195 781.057 920.745 777.507 917.845 774.707C914.995 771.907 911.495 770.507 907.345 770.507C902.945 770.507 899.245 772.032 896.245 775.082C893.295 778.082 891.82 781.582 891.82 785.582C891.82 789.582 893.245 792.982 896.095 795.782C898.945 798.532 902.595 799.907 907.045 799.907C911.495 799.907 915.12 798.557 917.92 795.857C920.77 793.107 922.195 789.607 922.195 785.357ZM973.334 770.357L969.359 774.482C966.409 771.732 963.709 770.357 961.259 770.357C959.709 770.357 958.409 770.857 957.359 771.857C956.309 772.807 955.784 774.007 955.784 775.457C955.784 776.857 956.359 778.107 957.509 779.207C958.709 780.257 960.809 781.582 963.809 783.182C966.809 784.732 969.109 786.457 970.709 788.357C972.359 790.257 973.184 792.582 973.184 795.332C973.184 798.832 971.959 801.782 969.509 804.182C967.109 806.582 964.134 807.782 960.584 807.782C955.634 807.782 951.509 805.682 948.209 801.482L952.109 797.132C954.809 800.282 957.559 801.857 960.359 801.857C962.259 801.857 963.884 801.232 965.234 799.982C966.584 798.732 967.259 797.282 967.259 795.632C967.259 793.932 966.634 792.532 965.384 791.432C964.184 790.282 962.084 788.957 959.084 787.457C956.134 785.957 953.884 784.307 952.334 782.507C950.834 780.657 950.084 778.257 950.084 775.307C950.084 772.307 951.159 769.757 953.309 767.657C955.509 765.557 958.384 764.507 961.934 764.507C965.534 764.507 969.334 766.457 973.334 770.357ZM218.236 882.357C221.736 883.657 224.361 885.507 226.111 887.907C227.911 890.307 228.811 893.157 228.811 896.457C228.811 901.057 227.136 904.882 223.786 907.932C220.486 910.932 216.161 912.432 210.811 912.432H195.436V857.532H206.611C212.411 857.532 216.811 858.732 219.811 861.132C222.861 863.482 224.386 866.857 224.386 871.257C224.386 876.057 222.336 879.757 218.236 882.357ZM201.811 880.032H204.361C208.861 880.032 212.211 879.332 214.411 877.932C216.661 876.532 217.786 874.307 217.786 871.257C217.786 866.307 214.361 863.832 207.511 863.832H201.811V880.032ZM201.811 906.132H207.961C211.811 906.132 214.611 905.757 216.361 905.007C218.111 904.257 219.511 903.107 220.561 901.557C221.611 900.007 222.136 898.432 222.136 896.832C222.136 895.232 221.811 893.832 221.161 892.632C220.561 891.382 219.636 890.282 218.386 889.332C217.186 888.382 215.686 887.682 213.886 887.232C212.136 886.732 208.936 886.482 204.286 886.482H201.811V906.132ZM292.052 893.082H256.202C256.452 897.582 257.952 901.207 260.702 903.957C263.502 906.657 266.827 908.007 270.677 908.007C277.227 908.007 282.227 904.782 285.677 898.332L290.927 901.032C288.577 905.382 285.802 908.607 282.602 910.707C279.402 912.757 275.577 913.782 271.127 913.782C264.977 913.782 259.902 911.682 255.902 907.482C251.902 903.232 249.902 898.132 249.902 892.182C249.902 886.232 251.902 881.132 255.902 876.882C259.952 872.632 264.952 870.507 270.902 870.507C276.852 870.507 281.827 872.532 285.827 876.582C289.827 880.582 291.902 886.082 292.052 893.082ZM285.152 887.607C284.402 884.107 282.702 881.382 280.052 879.432C277.402 877.482 274.352 876.507 270.902 876.507C263.902 876.507 259.252 880.207 256.952 887.607H285.152ZM355.531 912.432H349.456V906.432C345.006 911.332 339.881 913.782 334.081 913.782C328.281 913.782 323.306 911.657 319.156 907.407C315.056 903.107 313.006 898.007 313.006 892.107C313.006 886.157 315.081 881.082 319.231 876.882C323.381 872.632 328.431 870.507 334.381 870.507C340.381 870.507 345.406 872.932 349.456 877.782V871.557H355.531V912.432ZM334.531 908.007C338.681 908.007 342.256 906.507 345.256 903.507C348.256 900.507 349.756 896.782 349.756 892.332C349.756 887.832 348.281 884.082 345.331 881.082C342.381 878.032 338.756 876.507 334.456 876.507C330.206 876.507 326.606 878.082 323.656 881.232C320.706 884.332 319.231 888.007 319.231 892.257C319.231 896.507 320.731 900.207 323.731 903.357C326.731 906.457 330.331 908.007 334.531 908.007ZM415.503 912.432H409.278V906.282C405.228 911.082 400.428 913.482 394.878 913.482C391.928 913.482 389.253 912.732 386.853 911.232C384.453 909.682 382.653 907.582 381.453 904.932C380.253 902.232 379.653 898.107 379.653 892.557V871.557H385.803V891.057C385.803 895.557 386.003 898.632 386.403 900.282C386.853 901.882 387.478 903.257 388.278 904.407C389.128 905.507 390.178 906.332 391.428 906.882C392.728 907.432 394.278 907.707 396.078 907.707C397.928 907.707 399.728 907.257 401.478 906.357C403.228 905.457 404.728 904.207 405.978 902.607C407.228 901.007 408.078 899.307 408.528 897.507C409.028 895.707 409.278 892.107 409.278 886.707V871.557H415.503V912.432ZM458.958 876.957H450.858V905.607C450.858 906.657 451.008 907.307 451.308 907.557C451.608 907.757 452.358 907.857 453.558 907.857H457.158V913.182C454.758 913.582 452.933 913.782 451.683 913.782C449.283 913.782 447.508 913.207 446.358 912.057C445.208 910.857 444.633 908.982 444.633 906.432V876.957H437.583V871.557H444.633V856.182H450.858V871.557H458.958V876.957ZM482.123 856.182C483.473 856.182 484.598 856.657 485.498 857.607C486.448 858.507 486.923 859.632 486.923 860.982C486.923 862.282 486.448 863.407 485.498 864.357C484.598 865.257 483.473 865.707 482.123 865.707C480.823 865.707 479.698 865.232 478.748 864.282C477.848 863.332 477.398 862.232 477.398 860.982C477.398 859.682 477.848 858.557 478.748 857.607C479.698 856.657 480.823 856.182 482.123 856.182ZM485.273 912.432H479.048V871.557H485.273V912.432ZM526.537 863.532C524.137 862.532 522.262 862.032 520.912 862.032C519.562 862.032 518.687 862.482 518.287 863.382C517.887 864.232 517.687 865.682 517.687 867.732V871.557H526.012V876.957H517.687V912.432H511.462V876.957H506.287V871.557H511.462V866.907C511.462 863.207 512.137 860.507 513.487 858.807C514.887 857.057 517.062 856.182 520.012 856.182C521.612 856.182 523.787 856.557 526.537 857.307V863.532ZM582.146 912.432H575.921V906.282C571.871 911.082 567.071 913.482 561.521 913.482C558.571 913.482 555.896 912.732 553.496 911.232C551.096 909.682 549.296 907.582 548.096 904.932C546.896 902.232 546.296 898.107 546.296 892.557V871.557H552.446V891.057C552.446 895.557 552.646 898.632 553.046 900.282C553.496 901.882 554.121 903.257 554.921 904.407C555.771 905.507 556.821 906.332 558.071 906.882C559.371 907.432 560.921 907.707 562.721 907.707C564.571 907.707 566.371 907.257 568.121 906.357C569.871 905.457 571.371 904.207 572.621 902.607C573.871 901.007 574.721 899.307 575.171 897.507C575.671 895.707 575.921 892.107 575.921 886.707V871.557H582.146V912.432ZM612.176 912.432H606.026V856.182H612.176V912.432ZM675.566 912.432H669.116V857.532H675.566V912.432ZM760.81 912.432H754.51V890.157C754.51 886.607 754.285 884.007 753.835 882.357C753.435 880.707 752.51 879.332 751.06 878.232C749.66 877.082 747.785 876.507 745.435 876.507C743.135 876.507 740.96 877.257 738.91 878.757C736.86 880.257 735.435 882.307 734.635 884.907C733.835 887.457 733.435 891.257 733.435 896.307V912.432H727.36V891.507C727.36 887.407 727.135 884.457 726.685 882.657C726.285 880.857 725.36 879.382 723.91 878.232C722.46 877.082 720.635 876.507 718.435 876.507C716.235 876.507 714.135 877.207 712.135 878.607C710.185 879.957 708.735 881.757 707.785 884.007C706.835 886.207 706.36 889.882 706.36 895.032V912.432H700.21V871.557H706.36V877.332C709.86 872.782 714.235 870.507 719.485 870.507C722.335 870.507 724.91 871.282 727.21 872.832C729.56 874.332 731.235 876.482 732.235 879.282C733.935 876.432 736.06 874.257 738.61 872.757C741.16 871.257 743.86 870.507 746.71 870.507C750.61 870.507 753.935 871.882 756.685 874.632C759.435 877.382 760.81 882.557 760.81 890.157V912.432ZM791.07 877.782C795.12 872.932 800.12 870.507 806.07 870.507C812.02 870.507 817.07 872.632 821.22 876.882C825.37 881.082 827.445 886.157 827.445 892.107C827.445 898.057 825.395 903.157 821.295 907.407C817.195 911.657 812.245 913.782 806.445 913.782C800.645 913.782 795.52 911.332 791.07 906.432V926.907H784.92V871.557H791.07V877.782ZM806.07 908.007C810.17 908.007 813.72 906.482 816.72 903.432C819.77 900.332 821.295 896.607 821.295 892.257C821.295 887.907 819.795 884.207 816.795 881.157C813.845 878.057 810.22 876.507 805.92 876.507C801.62 876.507 797.995 878.032 795.045 881.082C792.145 884.082 790.695 887.807 790.695 892.257C790.695 896.707 792.195 900.457 795.195 903.507C798.195 906.507 801.82 908.007 806.07 908.007ZM890.943 912.432H884.868V906.432C880.418 911.332 875.293 913.782 869.493 913.782C863.693 913.782 858.718 911.657 854.568 907.407C850.468 903.107 848.418 898.007 848.418 892.107C848.418 886.157 850.493 881.082 854.643 876.882C858.793 872.632 863.843 870.507 869.793 870.507C875.793 870.507 880.818 872.932 884.868 877.782V871.557H890.943V912.432ZM869.943 908.007C874.093 908.007 877.668 906.507 880.668 903.507C883.668 900.507 885.168 896.782 885.168 892.332C885.168 887.832 883.693 884.082 880.743 881.082C877.793 878.032 874.168 876.507 869.868 876.507C865.618 876.507 862.018 878.082 859.068 881.232C856.118 884.332 854.643 888.007 854.643 892.257C854.643 896.507 856.143 900.207 859.143 903.357C862.143 906.457 865.743 908.007 869.943 908.007ZM955.64 904.107C953.49 907.257 950.665 909.657 947.165 911.307C943.715 912.957 939.965 913.782 935.915 913.782C929.615 913.782 924.34 911.707 920.09 907.557C915.89 903.407 913.79 898.332 913.79 892.332C913.79 886.332 915.915 881.207 920.165 876.957C924.415 872.657 929.915 870.507 936.665 870.507C940.665 870.507 944.34 871.382 947.69 873.132C951.09 874.882 953.74 877.332 955.64 880.482L950.765 883.557C947.115 878.807 942.34 876.432 936.44 876.432C931.79 876.432 927.89 877.932 924.74 880.932C921.59 883.882 920.015 887.557 920.015 891.957C920.015 896.357 921.565 900.132 924.665 903.282C927.765 906.432 931.69 908.007 936.44 908.007C942.14 908.007 946.94 905.607 950.84 900.807L955.64 904.107ZM997.299 876.957H989.199V905.607C989.199 906.657 989.349 907.307 989.649 907.557C989.949 907.757 990.699 907.857 991.899 907.857H995.499V913.182C993.099 913.582 991.274 913.782 990.024 913.782C987.624 913.782 985.849 913.207 984.699 912.057C983.549 910.857 982.974 908.982 982.974 906.432V876.957H975.924V871.557H982.974V856.182H989.199V871.557H997.299V876.957Z" fill="black"/>
</svg>
