<svg width="479" height="519" viewBox="0 0 479 519" fill="none" xmlns="http://www.w3.org/2000/svg">
<path d="M109.463 421.032C110.353 422.499 111.238 423.958 112.117 425.408C112.988 426.861 113.884 428.292 114.835 429.687C116.709 432.489 118.508 435.272 120.512 437.908C121.493 439.234 122.466 440.55 123.432 441.856C124.465 443.127 125.489 444.389 126.506 445.64C128.481 448.167 130.744 450.484 132.829 452.815C133.935 453.947 135.074 455.041 136.182 456.133C136.743 456.674 137.282 457.223 137.855 457.747C138.446 458.26 139.033 458.769 139.618 459.277C140.813 460.271 141.891 461.321 143.152 462.224C144.382 463.142 145.599 464.049 146.802 464.947C148.091 465.765 149.366 466.574 150.626 467.373C151.893 468.157 153.282 468.803 154.578 469.495C159.913 472.099 165.728 473.748 171.459 473.727C177.205 473.691 182.552 471.783 186.507 469.048C190.508 466.312 193.252 462.92 195.15 459.694C197.052 456.448 198.145 453.315 198.805 450.559C198.891 450.247 198.961 449.937 199.026 449.631C203.837 452.139 208.859 454.236 214.043 455.844C219.321 457.517 224.773 458.612 230.256 459.181C232.997 459.547 235.75 459.574 238.5 459.698C241.24 459.629 243.997 459.67 246.712 459.366C252.178 458.995 257.517 457.932 262.758 456.677C264.053 456.31 265.345 455.943 266.634 455.577L268.569 455.023L270.42 454.373C272.885 453.493 275.34 452.617 277.785 451.744C279 451.282 280.248 450.916 281.431 450.373C282.622 449.847 283.809 449.322 284.995 448.797C287.359 447.73 289.746 446.728 292.069 445.599C296.602 443.092 301.247 440.851 305.471 437.883C309.866 435.207 313.844 431.93 317.849 428.765C319.729 427.018 321.6 425.279 323.463 423.548C324.422 422.709 325.249 421.732 326.109 420.795C326.964 419.849 327.817 418.906 328.667 417.965C335.325 410.297 340.726 401.65 344.528 392.507L345.259 390.802C345.492 390.231 345.677 389.641 345.887 389.062C346.291 387.898 346.696 386.736 347.098 385.578C347.532 384.429 347.799 383.231 348.138 382.058C348.453 380.879 348.799 379.71 349.078 378.527C350.141 373.783 350.897 369.018 351.236 364.242L351.542 361.937C354.201 356.951 356.044 351.561 357.034 346.124C358.032 340.683 358.199 335.218 357.743 329.966C357.28 324.71 356.244 319.646 354.724 314.869C353.979 312.472 353.102 310.148 352.148 307.871C351.671 306.772 351.176 305.681 350.647 304.599C351.47 301.635 352.114 298.651 352.579 295.679C353.541 289.645 353.845 283.646 353.593 277.794C353.443 274.867 353.195 271.973 352.785 269.11C352.634 268.095 352.45 267.085 352.268 266.074C355.042 265.157 357.817 264.239 360.578 263.326C364.956 261.94 369.315 260.436 373.599 258.536L376.808 257.104L379.976 255.48C381.036 254.962 382.075 254.352 383.108 253.723C384.138 253.083 385.19 252.531 386.195 251.81C390.27 249.15 394.187 245.844 397.567 241.737L398.205 240.977L398.794 240.148L399.957 238.48C400.725 237.363 401.351 236.095 402.027 234.896C403.212 232.36 404.24 229.686 404.753 226.872C405.933 221.257 405.377 215.491 403.886 210.439C402.363 205.36 400.007 200.888 397.143 196.859C396.423 195.846 395.663 194.868 394.818 193.866L394.059 193.001C393.717 192.621 393.326 192.256 392.977 191.946C392.409 191.441 391.915 191.027 391.402 190.625C389.379 189.044 387.376 187.701 385.308 186.523C381.194 184.125 376.905 182.348 372.565 180.96C368.216 179.604 363.812 178.734 359.443 178.176C350.691 177.169 342.102 177.595 334.01 178.999C325.906 180.4 318.293 182.753 311.157 185.546C309.39 186.279 307.576 186.902 305.884 187.721C304.175 188.509 302.477 189.291 300.79 190.069C299.102 190.841 297.51 191.751 295.886 192.579C294.284 193.444 292.642 194.224 291.12 195.162C278.675 202.272 267.894 210.25 258.367 218.144C256.018 220.151 253.712 222.121 251.451 224.052C249.27 226.062 247.132 228.031 245.039 229.959C242.927 231.862 240.96 233.823 239.04 235.738C237.074 237.69 235.155 239.597 233.282 241.456C232.844 241.982 232.408 242.506 231.975 243.025C231.582 243.486 231.192 243.944 230.804 244.399C230.008 245.301 229.222 246.191 228.447 247.07C226.876 248.814 225.31 250.481 223.765 252.077C220.662 255.25 217.643 258.144 214.707 260.685C214.017 261.285 213.333 261.864 212.654 262.427C213.094 261.251 213.538 260.076 213.943 258.889C216.214 252.159 217.938 245.257 218.963 238.221C219.98 231.189 220.213 223.991 219.462 216.848C218.712 209.712 216.905 202.626 213.972 196.072C211.054 189.512 207.036 183.533 202.344 178.416C197.593 173.346 192.243 169.17 186.732 165.575C185.319 164.753 183.911 163.933 182.506 163.116C181.801 162.716 181.107 162.289 180.395 161.916L178.237 160.867C176.8 160.172 175.367 159.48 173.938 158.79C172.49 158.15 171.021 157.571 169.57 156.965C163.683 154.677 157.545 152.78 150.864 152.089C147.497 151.817 144.033 151.772 140.452 152.399C136.885 153.054 133.236 154.361 130.035 156.518C126.824 158.654 124.198 161.585 122.379 164.709C120.542 167.842 119.428 171.132 118.767 174.341C117.522 180.782 117.865 186.941 119.161 192.823C119.836 195.77 120.763 198.65 122.177 201.515C122.565 202.237 122.882 202.94 123.362 203.666L124.04 204.738C124.26 205.073 124.438 205.305 124.639 205.592C125.407 206.644 126.171 207.69 126.932 208.732C129.911 212.749 132.621 216.54 134.908 220.47C137.219 224.375 139.107 228.363 140.569 232.406C143.525 240.484 144.643 248.796 144.345 256.763C144.073 264.736 142.549 272.354 140.369 279.362C138.192 286.391 135.49 292.817 132.533 298.722C128.804 306.565 126.31 314.048 124.764 320.907C122.922 321.101 121.086 321.406 119.243 321.822C115.425 322.697 111.629 324.076 108.06 326.111C104.496 328.139 101.171 330.85 98.4494 334.158C95.7148 337.456 93.6244 341.301 92.158 345.316L91.1966 348.363C90.8903 349.384 90.7326 350.413 90.502 351.444C89.998 353.517 89.8958 355.563 89.6528 357.635C89.5222 359.686 89.5217 361.723 89.5267 363.759C89.6703 365.75 89.7486 367.778 89.9856 369.745C90.8983 377.644 92.985 385.059 95.5321 392.047C96.7312 395.597 98.2455 398.916 99.6629 402.272C100.384 403.941 101.211 405.526 101.982 407.144C102.78 408.741 103.524 410.372 104.369 411.914C106.073 414.99 107.688 418.095 109.463 421.032ZM121.559 407.913C120.773 406.519 119.994 405.137 119.223 403.767C118.455 402.397 117.782 401.012 117.059 399.659C111.38 388.818 106.84 378.558 104.414 369.103C101.808 359.653 101.602 351.087 103.703 344.162C104.755 340.7 106.397 337.659 108.355 335.086C110.319 332.515 112.585 330.437 114.795 328.735C118.308 326.045 121.644 324.32 124.293 323.134C123.642 326.39 123.204 329.496 122.953 332.416C122.095 342.035 123.434 349.546 124.908 354.34C125.093 354.941 125.267 355.507 125.429 356.036C125.624 356.555 125.805 357.038 125.973 357.485C126.295 358.383 126.597 359.123 126.877 359.703C127.406 360.871 127.676 361.468 127.676 361.468C124.423 352.964 123.86 343.853 125.022 335.224C125.623 330.566 126.688 326.019 128.069 321.595L128.357 320.694C129.485 317.203 130.801 313.788 132.267 310.466C133.999 306.576 135.954 302.756 138.131 299.216C138.485 298.653 138.688 298.209 138.961 297.724L139.736 296.29C140.243 295.33 140.787 294.387 141.264 293.411C142.195 291.448 143.232 289.534 144.067 287.525C145.888 283.575 147.374 279.477 148.738 275.338C150.002 271.166 151.061 266.921 151.776 262.598C153.144 253.954 153.189 245.006 151.49 236.345C149.831 227.679 146.455 219.423 142.196 211.975C140.073 208.252 137.727 204.699 135.484 201.342L133.877 198.879C133.577 198.437 133.47 198.176 133.279 197.85C133.096 197.557 132.943 197.188 132.782 196.836C132.152 195.411 131.594 193.82 131.227 192.142C130.463 188.809 130.148 185.265 130.403 181.908C130.482 180.214 130.806 178.602 131.145 177.037C131.579 175.521 132.05 174.036 132.74 172.772C133.419 171.507 134.17 170.346 135.102 169.46C135.517 168.953 136.059 168.619 136.525 168.198C136.775 168.008 137.063 167.869 137.322 167.694C137.584 167.525 137.838 167.341 138.145 167.232C140.414 166.114 143.224 165.614 146.332 165.737C149.436 165.85 152.744 166.539 156.036 167.48C157.689 168.041 159.339 168.508 160.983 169.206L163.446 170.177L165.891 171.283C172.354 174.332 178.479 177.863 183.721 182.135C188.977 186.39 193.339 191.365 196.52 196.891C199.714 202.412 201.742 208.464 202.721 214.735C203.741 221.004 203.562 227.507 202.738 233.917C201.922 240.338 200.276 246.687 198.2 252.836C197.133 255.903 195.963 258.928 194.671 261.873C194.021 263.342 193.351 264.797 192.65 266.215C192.3 266.926 191.947 267.627 191.586 268.31C191.243 268.968 190.825 269.725 190.561 270.186C188.472 274.157 185.998 277.057 185.998 277.057C191.016 276.979 198.088 274.625 198.088 274.625C202.259 273.427 209.649 269.81 209.649 269.81C211.1 269.029 212.527 268.21 213.928 267.363C218.617 264.482 223.055 261.28 227.276 257.897C229.389 256.206 231.45 254.47 233.461 252.691C234.466 251.8 235.462 250.904 236.442 249.989C237.376 249.1 238.307 248.213 239.236 247.328C260.125 230.114 281.798 214.851 303.861 204.994C314.868 200.009 326.048 196.577 336.917 195.028C347.778 193.52 358.357 194.183 367.635 197.194C369.932 197.983 372.175 198.848 374.273 199.895C376.362 200.938 378.357 202.116 380.091 203.371C380.507 203.678 380.944 204.004 381.283 204.293C381.443 204.418 381.701 204.648 381.652 204.602C381.674 204.628 381.577 204.509 381.8 204.766C382.431 205.487 383.107 206.365 383.719 207.234C384.948 208.996 386.017 210.85 386.833 212.701C388.486 216.425 389.048 220.038 388.602 223.315C388.169 226.599 386.576 229.738 384.158 232.681C381.747 235.621 378.51 238.245 375.015 240.53L373.715 241.399L372.344 242.198C371.424 242.72 370.532 243.269 369.602 243.773C367.683 244.709 365.866 245.752 363.898 246.572C362.931 247.006 361.97 247.438 361.014 247.867C360.05 248.287 359.055 248.651 358.085 249.045C356.053 249.863 354.045 250.672 352.061 251.472C350.003 252.317 347.969 253.152 345.961 253.976C344.961 254.394 343.967 254.809 342.98 255.221C342.018 255.691 341.062 256.159 340.112 256.624C324.828 263.855 312.27 272.335 302.207 280.598C292.132 288.877 284.511 296.934 278.807 303.791C273.112 310.671 269.342 316.381 266.951 320.285C265.745 322.231 264.918 323.759 264.373 324.776C263.826 325.801 263.59 326.311 263.59 326.311C274.612 312.512 288.251 300.856 302.56 290.927C313.301 283.656 324.572 277.369 336.21 272.246C336.508 274.2 336.773 276.156 336.928 278.111C337.316 282.545 337.357 286.936 337.056 291.196C336.758 295.458 336.117 299.588 335.211 303.555C334.27 307.514 332.98 311.271 331.513 314.856C328.449 321.967 324.325 328.191 319.717 333.46C315.096 338.723 310.062 343.084 305.127 346.67C303.91 347.591 302.626 348.359 301.425 349.186C300.202 349.979 299.058 350.836 297.836 351.492C296.635 352.192 295.469 352.871 294.34 353.528C293.774 353.86 293.217 354.186 292.669 354.508C292.103 354.796 291.546 355.079 290.999 355.358C288.798 356.45 286.782 357.561 284.86 358.44C282.923 359.303 281.156 360.09 279.569 360.797C277.99 361.547 276.535 362.066 275.286 362.559C274.035 363.05 272.978 363.465 272.124 363.8C270.414 364.482 269.52 364.839 269.52 364.839C282.755 363.279 295.664 359.988 307.57 354.445C313.443 351.562 319.195 348.32 324.282 344.192C329.41 340.138 334.074 335.497 338.03 330.34C339.014 329.041 339.95 327.713 340.839 326.359C341.141 327.549 341.419 328.736 341.645 329.917C342.301 333.33 342.64 336.694 342.696 339.969C342.681 343.236 342.38 346.403 341.815 349.452C340.789 354.481 338.944 359.126 336.578 363.296C336.578 363.296 334.59 366.637 333.847 367.611C331.009 371.628 327.747 375.085 324.541 378.122C320.748 381.482 317.079 384.379 313.65 386.658C312.793 387.234 311.967 387.79 311.172 388.324C310.383 388.876 309.607 389.378 308.835 389.814C307.308 390.729 305.915 391.564 304.663 392.314C302.138 393.798 300.094 394.798 298.748 395.564C297.391 396.311 296.681 396.701 296.681 396.701C307.695 394.523 318.343 390.961 327.995 385.402L329.81 384.368L329.863 384.333C329.758 384.62 329.662 384.911 329.553 385.197C328.828 386.909 328.183 388.65 327.422 390.331C326.6 391.987 325.781 393.636 324.967 395.276C324.025 396.853 323.087 398.423 322.154 399.985C321.722 400.788 321.146 401.5 320.629 402.246C320.102 402.988 319.576 403.727 319.052 404.464C314.733 410.271 309.877 415.602 304.417 420.117C303.745 420.693 303.076 421.268 302.408 421.841C301.735 422.408 301.099 423.015 300.363 423.505C298.937 424.54 297.519 425.569 296.11 426.592C295.406 427.106 294.705 427.619 294.005 428.13C293.31 428.648 292.534 429.055 291.807 429.522C290.33 430.432 288.863 431.335 287.406 432.232C286.678 432.683 285.952 433.133 285.228 433.581C284.481 433.994 283.714 434.37 282.962 434.766C281.452 435.55 279.952 436.328 278.463 437.102C275.537 438.749 272.424 439.963 269.426 441.292C267.921 441.95 266.428 442.602 264.946 443.25C263.466 443.855 262.003 444.336 260.548 444.884C259.103 445.458 257.629 445.861 256.174 446.295C254.72 446.732 253.28 447.188 251.823 447.483C250.37 447.797 248.94 448.203 247.501 448.444C246.059 448.687 244.631 448.927 243.217 449.166C240.373 449.485 237.572 449.811 234.815 449.861C229.304 450.045 223.995 449.669 218.979 448.869C211.887 447.65 205.415 445.648 199.65 443.253L198.292 442.685C196.411 441.867 194.603 441.011 192.888 440.124C189.235 438.268 185.929 436.327 182.988 434.381C180.034 432.454 177.417 430.555 175.137 428.756C170.549 425.181 167.271 422.058 165.1 419.913C164.026 418.829 163.222 417.987 162.702 417.413C162.191 416.844 161.93 416.553 161.93 416.553C164.936 421.131 168.572 425.43 172.377 429.447C176.227 433.443 180.362 437.161 184.761 440.529C188.452 443.36 192.353 445.918 196.408 448.197C196.084 448.912 195.744 449.615 195.369 450.295C193.339 454.031 190.582 457.201 187.525 459.587C184.452 461.981 180.952 463.367 177.555 463.788C174.141 464.211 170.784 463.641 167.614 462.416C161.261 459.926 155.658 455.304 150.755 450.162C148.284 447.6 145.984 444.868 143.769 442.118C142.686 440.711 141.609 439.314 140.541 437.927C139.519 436.486 138.505 435.055 137.498 433.634C136.463 432.245 135.536 430.758 134.579 429.323C133.639 427.87 132.648 426.485 131.757 425.021C129.985 422.084 128.114 419.306 126.472 416.395C124.788 413.522 123.074 410.727 121.559 407.913Z" fill="#393838"/>
<path opacity="0.69" d="M228.551 14.171C199.347 6.34577 169.388 23.4227 161.645 52.3205C155.394 75.6481 149.814 133.493 225.921 213.871C227.287 215.3 229.02 216.327 230.93 216.839C232.84 217.351 234.854 217.328 236.752 216.773C342.851 185.217 366.941 132.332 373.192 109.005C380.935 80.1067 363.529 50.3382 334.324 42.513C305.12 34.6878 272.941 60.0514 272.941 60.0514C272.941 60.0514 257.755 21.9962 228.551 14.171Z" fill="#5D2DC3" fill-opacity="0.84"/>
</svg>
