<svg width="1559" height="529" viewBox="0 0 1559 529" fill="none" xmlns="http://www.w3.org/2000/svg">
<path d="M111.537 429.01C112.444 430.505 113.345 431.991 114.242 433.469C115.128 434.95 116.042 436.407 117.011 437.829C118.921 440.684 120.754 443.52 122.796 446.206C123.795 447.557 124.787 448.898 125.771 450.229C126.823 451.524 127.867 452.809 128.903 454.085C130.916 456.659 133.222 459.02 135.346 461.395C136.473 462.548 137.634 463.664 138.762 464.776C139.334 465.327 139.883 465.887 140.468 466.421C141.069 466.943 141.668 467.462 142.263 467.979C143.481 468.993 144.58 470.062 145.864 470.983C147.118 471.918 148.358 472.842 149.584 473.757C150.897 474.59 152.196 475.415 153.48 476.229C154.771 477.028 156.187 477.686 157.507 478.391C162.943 481.044 168.868 482.725 174.708 482.704C180.562 482.667 186.011 480.723 190.041 477.936C194.118 475.148 196.914 471.692 198.848 468.404C200.786 465.097 201.899 461.905 202.572 459.096C202.659 458.778 202.731 458.463 202.797 458.151C207.699 460.706 212.817 462.843 218.099 464.481C223.476 466.186 229.032 467.302 234.619 467.881C237.412 468.255 240.217 468.282 243.019 468.409C245.811 468.338 248.62 468.38 251.386 468.07C256.957 467.692 262.397 466.609 267.737 465.331C269.056 464.956 270.372 464.583 271.686 464.21L273.658 463.645L275.544 462.982C278.056 462.086 280.557 461.193 283.048 460.304C284.287 459.833 285.559 459.46 286.764 458.907C287.977 458.371 289.187 457.836 290.395 457.301C292.804 456.213 295.236 455.192 297.603 454.043C302.222 451.488 306.955 449.204 311.26 446.18C315.738 443.454 319.791 440.114 323.871 436.89C325.787 435.109 327.694 433.337 329.592 431.573C330.569 430.719 331.412 429.723 332.289 428.768C333.16 427.805 334.028 426.844 334.895 425.885C341.679 418.072 347.182 409.26 351.056 399.944L351.801 398.207C352.038 397.625 352.227 397.024 352.441 396.434C352.853 395.248 353.265 394.064 353.675 392.884C354.117 391.713 354.39 390.493 354.735 389.298C355.055 388.096 355.408 386.904 355.692 385.7C356.776 380.865 357.546 376.01 357.892 371.143L358.203 368.795C360.912 363.715 362.79 358.222 363.799 352.682C364.816 347.139 364.986 341.57 364.522 336.218C364.05 330.862 362.994 325.703 361.445 320.835C360.686 318.393 359.793 316.025 358.821 313.705C358.334 312.584 357.83 311.473 357.292 310.371C358.129 307.35 358.786 304.31 359.26 301.282C360.24 295.134 360.549 289.021 360.293 283.057C360.14 280.075 359.888 277.126 359.47 274.209C359.316 273.175 359.129 272.145 358.943 271.115C361.769 270.181 364.597 269.246 367.41 268.315C371.871 266.903 376.313 265.371 380.678 263.435L383.948 261.975L387.176 260.321C388.256 259.794 389.314 259.171 390.367 258.53C391.417 257.878 392.488 257.316 393.513 256.582C397.665 253.871 401.657 250.502 405.1 246.318L405.75 245.543L406.35 244.699L407.536 242.999C408.318 241.861 408.956 240.569 409.645 239.347C410.853 236.763 411.899 234.039 412.423 231.171C413.625 225.449 413.058 219.574 411.539 214.427C409.987 209.251 407.587 204.694 404.668 200.589C403.935 199.557 403.16 198.561 402.3 197.54L401.525 196.658C401.178 196.27 400.779 195.899 400.423 195.583C399.844 195.069 399.342 194.647 398.818 194.237C396.757 192.627 394.716 191.258 392.609 190.057C388.417 187.614 384.047 185.804 379.624 184.389C375.193 183.008 370.706 182.12 366.254 181.552C357.336 180.526 348.584 180.96 340.339 182.391C332.081 183.819 324.324 186.216 317.053 189.062C315.252 189.809 313.404 190.444 311.68 191.278C309.939 192.081 308.209 192.878 306.49 193.67C304.769 194.458 303.148 195.384 301.492 196.228C299.86 197.109 298.187 197.904 296.637 198.86C283.956 206.105 272.97 214.234 263.263 222.277C260.869 224.322 258.519 226.329 256.215 228.298C253.993 230.345 251.815 232.352 249.683 234.316C247.53 236.255 245.525 238.253 243.569 240.205C241.567 242.194 239.611 244.137 237.703 246.031C237.256 246.568 236.812 247.101 236.371 247.63C235.97 248.1 235.572 248.567 235.177 249.03C234.366 249.949 233.565 250.856 232.776 251.751C231.175 253.528 229.58 255.227 228.005 256.853C224.843 260.087 221.767 263.036 218.775 265.625C218.072 266.236 217.376 266.826 216.684 267.4C217.132 266.201 217.584 265.004 217.997 263.795C220.311 256.937 222.068 249.904 223.112 242.735C224.148 235.57 224.386 228.236 223.62 220.957C222.856 213.685 221.015 206.466 218.027 199.787C215.053 193.103 210.959 187.01 206.178 181.797C201.337 176.631 195.886 172.376 190.27 168.712C188.831 167.875 187.396 167.04 185.964 166.207C185.246 165.8 184.539 165.364 183.813 164.984L181.614 163.915C180.15 163.207 178.69 162.502 177.234 161.799C175.758 161.147 174.262 160.556 172.783 159.939C166.785 157.608 160.53 155.675 153.723 154.971C150.292 154.694 146.762 154.648 143.114 155.287C139.479 155.954 135.761 157.286 132.498 159.484C129.227 161.66 126.551 164.647 124.698 167.83C122.826 171.022 121.691 174.375 121.018 177.644C119.749 184.208 120.098 190.483 121.418 196.477C122.106 199.479 123.051 202.414 124.492 205.334C124.888 206.07 125.211 206.786 125.699 207.525L126.39 208.618C126.614 208.958 126.796 209.195 127.001 209.488C127.783 210.559 128.562 211.626 129.337 212.687C132.372 216.78 135.134 220.643 137.464 224.647C139.819 228.627 141.742 232.69 143.232 236.81C146.244 245.041 147.384 253.51 147.08 261.628C146.803 269.752 145.25 277.515 143.029 284.655C140.811 291.817 138.057 298.366 135.044 304.382C131.244 312.374 128.703 319.999 127.128 326.988C125.251 327.185 123.38 327.496 121.502 327.92C117.612 328.812 113.744 330.217 110.107 332.29C106.476 334.357 103.088 337.119 100.315 340.489C97.5284 343.851 95.3984 347.768 93.9043 351.859L92.9246 354.964C92.6125 356.004 92.4519 357.052 92.2168 358.103C91.7033 360.215 91.5992 362.3 91.3515 364.412C91.2185 366.501 91.218 368.577 91.223 370.652C91.3694 372.681 91.4492 374.747 91.6907 376.751C92.6207 384.8 94.7469 392.355 97.3423 399.475C98.5641 403.093 100.107 406.475 101.551 409.894C102.286 411.595 103.129 413.21 103.915 414.858C104.727 416.486 105.485 418.148 106.347 419.719C108.083 422.854 109.728 426.017 111.537 429.01ZM123.862 415.643C123.061 414.221 122.268 412.813 121.482 411.418C120.7 410.022 120.014 408.611 119.277 407.232C113.49 396.185 108.864 385.731 106.393 376.097C103.737 366.468 103.527 357.74 105.668 350.683C106.739 347.155 108.413 344.057 110.408 341.435C112.409 338.816 114.718 336.698 116.97 334.964C120.55 332.223 123.949 330.465 126.648 329.257C125.985 332.575 125.539 335.739 125.282 338.714C124.408 348.516 125.773 356.17 127.275 361.054C127.463 361.667 127.64 362.243 127.806 362.782C128.004 363.311 128.189 363.804 128.36 364.259C128.688 365.174 128.995 365.927 129.281 366.518C129.82 367.709 130.095 368.317 130.095 368.317C126.781 359.652 126.207 350.368 127.391 341.576C128.003 336.83 129.088 332.197 130.496 327.688L130.789 326.77C131.939 323.214 133.28 319.734 134.773 316.349C136.538 312.385 138.53 308.493 140.748 304.886C141.109 304.312 141.315 303.859 141.594 303.365L142.383 301.904C142.901 300.926 143.454 299.965 143.941 298.971C144.89 296.971 145.946 295.02 146.797 292.974C148.652 288.948 150.167 284.773 151.556 280.555C152.844 276.304 153.923 271.979 154.652 267.574C156.046 258.766 156.091 249.648 154.36 240.823C152.67 231.994 149.231 223.581 144.89 215.991C142.728 212.198 140.337 208.578 138.051 205.157L136.413 202.647C136.108 202.197 135.999 201.932 135.805 201.599C135.618 201.3 135.462 200.924 135.298 200.566C134.656 199.114 134.088 197.492 133.714 195.783C132.935 192.387 132.614 188.775 132.874 185.355C132.955 183.629 133.285 181.986 133.63 180.391C134.072 178.846 134.552 177.334 135.255 176.046C135.947 174.757 136.713 173.574 137.662 172.671C138.084 172.154 138.637 171.814 139.112 171.385C139.367 171.191 139.66 171.05 139.924 170.872C140.191 170.699 140.449 170.512 140.763 170.4C143.075 169.261 145.937 168.752 149.105 168.877C152.268 168.993 155.638 169.695 158.992 170.653C160.677 171.225 162.358 171.701 164.033 172.412L166.543 173.402L169.035 174.529C175.62 177.635 181.861 181.233 187.202 185.586C192.558 189.922 197.003 194.991 200.243 200.622C203.498 206.247 205.564 212.414 206.563 218.804C207.602 225.192 207.419 231.818 206.579 238.349C205.748 244.892 204.071 251.362 201.955 257.627C200.868 260.752 199.676 263.834 198.36 266.835C197.698 268.332 197.015 269.815 196.301 271.259C195.944 271.984 195.584 272.698 195.216 273.394C194.867 274.064 194.441 274.836 194.172 275.305C192.043 279.352 189.522 282.307 189.522 282.307C194.636 282.228 201.841 279.829 201.841 279.829C206.092 278.608 213.621 274.923 213.621 274.923C215.1 274.126 216.554 273.293 217.982 272.429C222.76 269.494 227.281 266.231 231.583 262.784C233.736 261.061 235.836 259.292 237.885 257.48C238.908 256.571 239.924 255.658 240.923 254.726C241.874 253.82 242.823 252.916 243.769 252.015C265.054 234.474 287.137 218.922 309.619 208.878C320.834 203.799 332.226 200.302 343.301 198.724C354.368 197.186 365.148 197.863 374.601 200.931C376.942 201.735 379.227 202.616 381.365 203.683C383.494 204.746 385.527 205.945 387.293 207.225C387.717 207.538 388.162 207.87 388.508 208.164C388.671 208.291 388.934 208.526 388.884 208.479C388.906 208.505 388.807 208.385 389.034 208.646C389.677 209.38 390.366 210.276 390.989 211.161C392.242 212.956 393.332 214.845 394.163 216.731C395.847 220.526 396.42 224.207 395.965 227.546C395.524 230.893 393.901 234.091 391.437 237.09C388.98 240.086 385.682 242.759 382.121 245.087L380.796 245.973L379.4 246.787C378.462 247.32 377.553 247.879 376.606 248.392C374.65 249.346 372.799 250.409 370.793 251.244C369.808 251.686 368.828 252.127 367.855 252.564C366.872 252.992 365.858 253.363 364.87 253.764C362.8 254.598 360.754 255.422 358.732 256.237C356.634 257.098 354.562 257.949 352.516 258.789C351.497 259.214 350.485 259.637 349.479 260.057C348.499 260.536 347.524 261.013 346.557 261.486C330.983 268.854 318.187 277.496 307.933 285.914C297.668 294.351 289.902 302.56 284.09 309.547C278.287 316.558 274.446 322.376 272.009 326.354C270.781 328.337 269.938 329.894 269.382 330.93C268.825 331.974 268.585 332.494 268.585 332.494C279.816 318.434 293.713 306.556 308.293 296.44C319.237 289.031 330.723 282.625 342.58 277.404C342.884 279.395 343.154 281.389 343.312 283.381C343.708 287.899 343.75 292.373 343.443 296.714C343.139 301.057 342.486 305.264 341.563 309.307C340.604 313.341 339.29 317.169 337.794 320.822C334.672 328.067 330.47 334.41 325.776 339.779C321.066 345.141 315.938 349.585 310.908 353.239C309.668 354.177 308.36 354.96 307.137 355.803C305.891 356.61 304.724 357.484 303.479 358.153C302.256 358.865 301.068 359.557 299.917 360.227C299.341 360.565 298.773 360.898 298.214 361.225C297.638 361.519 297.071 361.808 296.513 362.092C294.271 363.204 292.216 364.337 290.258 365.232C288.284 366.111 286.484 366.913 284.867 367.634C283.258 368.398 281.774 368.927 280.503 369.429C279.228 369.929 278.15 370.352 277.28 370.694C275.538 371.389 274.627 371.752 274.627 371.752C288.112 370.162 301.267 366.809 313.398 361.161C319.382 358.224 325.243 354.92 330.427 350.714C335.651 346.583 340.404 341.854 344.435 336.599C345.438 335.276 346.392 333.922 347.297 332.543C347.605 333.755 347.888 334.965 348.119 336.169C348.787 339.646 349.133 343.074 349.189 346.411C349.175 349.74 348.868 352.967 348.292 356.073C347.247 361.198 345.366 365.93 342.955 370.18C342.955 370.18 340.93 373.584 340.173 374.576C337.281 378.67 333.957 382.192 330.691 385.287C326.826 388.711 323.087 391.662 319.593 393.984C318.72 394.571 317.878 395.138 317.068 395.683C316.265 396.244 315.473 396.756 314.687 397.2C313.131 398.133 311.711 398.984 310.436 399.748C307.863 401.26 305.78 402.279 304.409 403.06C303.026 403.82 302.302 404.218 302.302 404.218C313.526 401.999 324.375 398.369 334.21 392.705L336.059 391.652L336.114 391.615C336.007 391.908 335.909 392.205 335.798 392.496C335.059 394.241 334.402 396.014 333.626 397.727C332.788 399.415 331.954 401.094 331.125 402.766C330.165 404.373 329.209 405.972 328.258 407.564C327.818 408.382 327.231 409.108 326.704 409.868C326.167 410.624 325.632 411.377 325.097 412.128C320.697 418.045 315.749 423.477 310.185 428.077C309.501 428.665 308.819 429.25 308.138 429.834C307.452 430.412 306.805 431.031 306.054 431.53C304.601 432.585 303.156 433.633 301.721 434.675C301.004 435.199 300.289 435.722 299.576 436.243C298.868 436.77 298.077 437.185 297.336 437.661C295.831 438.588 294.337 439.508 292.852 440.422C292.11 440.882 291.37 441.34 290.633 441.797C289.872 442.217 289.09 442.601 288.324 443.004C286.785 443.803 285.257 444.596 283.74 445.384C280.758 447.062 277.586 448.3 274.531 449.654C272.997 450.324 271.476 450.989 269.967 451.648C268.459 452.265 266.968 452.755 265.485 453.314C264.012 453.899 262.511 454.309 261.028 454.752C259.546 455.197 258.079 455.661 256.595 455.962C255.115 456.282 253.657 456.696 252.191 456.941C250.722 457.188 249.267 457.434 247.826 457.677C244.928 458.002 242.074 458.334 239.264 458.386C233.649 458.572 228.239 458.19 223.129 457.374C215.901 456.132 209.307 454.093 203.433 451.652L202.05 451.073C200.132 450.24 198.291 449.368 196.543 448.464C192.821 446.573 189.452 444.595 186.456 442.612C183.445 440.648 180.779 438.713 178.455 436.88C173.78 433.238 170.441 430.056 168.228 427.869C167.134 426.765 166.315 425.908 165.785 425.322C165.264 424.743 164.999 424.446 164.999 424.446C168.061 429.111 171.766 433.491 175.643 437.584C179.567 441.656 183.779 445.445 188.262 448.876C192.023 451.761 195.997 454.368 200.129 456.689C199.799 457.418 199.453 458.135 199.071 458.827C197.002 462.634 194.193 465.864 191.078 468.296C187.947 470.735 184.38 472.147 180.92 472.576C177.441 473.007 174.02 472.427 170.79 471.178C164.317 468.64 158.607 463.932 153.612 458.692C151.094 456.081 148.751 453.298 146.494 450.495C145.389 449.061 144.293 447.638 143.204 446.225C142.163 444.756 141.129 443.298 140.103 441.851C139.049 440.435 138.104 438.921 137.129 437.458C136.171 435.977 135.161 434.566 134.253 433.074C132.448 430.082 130.541 427.251 128.868 424.285C127.152 421.358 125.406 418.51 123.862 415.643Z" fill="#393838"/>
<path opacity="0.69" d="M232.881 14.4395C203.124 6.46601 172.597 23.8665 164.708 53.3119C158.339 77.0815 152.653 136.022 230.202 217.923C231.594 219.38 233.359 220.426 235.306 220.948C237.252 221.469 239.304 221.446 241.238 220.88C349.348 188.726 373.894 134.84 380.264 111.07C388.153 81.6246 370.417 51.292 340.659 43.3185C310.902 35.345 278.113 61.1893 278.113 61.1893C278.113 61.1893 262.639 22.413 232.881 14.4395Z" fill="#5D2DC3" fill-opacity="0.84"/>
<path d="M584.782 149.672H609.757L597.607 114.302H597.337L584.782 149.672ZM586.807 90.5418H608.542L644.587 186.932H622.582L615.292 165.467H579.247L571.687 186.932H550.357L586.807 90.5418ZM651.414 117.137H669.504V126.587H669.774C672.294 122.987 675.309 120.197 678.819 118.217C682.419 116.237 686.514 115.247 691.104 115.247C695.514 115.247 699.519 116.102 703.119 117.812C706.809 119.522 709.599 122.537 711.489 126.857C713.559 123.797 716.349 121.097 719.859 118.757C723.459 116.417 727.689 115.247 732.549 115.247C736.239 115.247 739.659 115.697 742.809 116.597C745.959 117.497 748.659 118.937 750.909 120.917C753.159 122.897 754.914 125.507 756.174 128.747C757.434 131.897 758.064 135.722 758.064 140.222V186.932H738.894V147.377C738.894 145.037 738.804 142.832 738.624 140.762C738.444 138.692 737.949 136.892 737.139 135.362C736.329 133.832 735.114 132.617 733.494 131.717C731.964 130.817 729.849 130.367 727.149 130.367C724.449 130.367 722.244 130.907 720.534 131.987C718.914 132.977 717.609 134.327 716.619 136.037C715.719 137.657 715.089 139.547 714.729 141.707C714.459 143.777 714.324 145.892 714.324 148.052V186.932H695.154V147.782C695.154 145.712 695.109 143.687 695.019 141.707C694.929 139.637 694.524 137.747 693.804 136.037C693.174 134.327 692.049 132.977 690.429 131.987C688.899 130.907 686.604 130.367 683.544 130.367C682.644 130.367 681.429 130.592 679.899 131.042C678.459 131.402 677.019 132.167 675.579 133.337C674.229 134.417 673.059 136.037 672.069 138.197C671.079 140.267 670.584 143.012 670.584 146.432V186.932H651.414V117.137ZM807.643 195.572C805.573 201.242 802.693 205.292 799.003 207.722C795.313 210.152 790.183 211.367 783.613 211.367C781.633 211.367 779.653 211.277 777.673 211.097C775.783 211.007 773.848 210.872 771.868 210.692V194.897C773.668 195.077 775.513 195.257 777.403 195.437C779.293 195.617 781.183 195.662 783.073 195.572C785.593 195.302 787.438 194.312 788.608 192.602C789.868 190.892 790.498 189.002 790.498 186.932C790.498 185.402 790.228 183.962 789.688 182.612L765.253 117.137H785.638L801.433 164.927H801.703L816.958 117.137H836.803L807.643 195.572ZM845.113 90.5418H864.283V111.197C864.373 114.167 863.923 116.957 862.933 119.567C862.033 122.177 860.728 124.472 859.018 126.452C857.308 128.432 855.238 130.097 852.808 131.447C850.468 132.707 847.903 133.517 845.113 133.877V124.967C848.533 123.797 850.873 122.087 852.133 119.837C853.393 117.497 854.023 114.662 854.023 111.332H845.113V90.5418ZM885.626 164.252C885.626 166.322 886.031 168.122 886.841 169.652C887.741 171.092 888.866 172.307 890.216 173.297C891.566 174.197 893.096 174.872 894.806 175.322C896.606 175.772 898.451 175.997 900.341 175.997C901.691 175.997 903.086 175.862 904.526 175.592C906.056 175.232 907.406 174.737 908.576 174.107C909.836 173.387 910.871 172.487 911.681 171.407C912.491 170.237 912.896 168.797 912.896 167.087C912.896 164.207 910.961 162.047 907.091 160.607C903.311 159.167 898.001 157.727 891.161 156.287C888.371 155.657 885.626 154.937 882.926 154.127C880.316 153.227 877.976 152.102 875.906 150.752C873.836 149.312 872.171 147.557 870.911 145.487C869.651 143.327 869.021 140.717 869.021 137.657C869.021 133.157 869.876 129.467 871.586 126.587C873.386 123.707 875.726 121.457 878.606 119.837C881.486 118.127 884.726 116.957 888.326 116.327C891.926 115.607 895.616 115.247 899.396 115.247C903.176 115.247 906.821 115.607 910.331 116.327C913.931 117.047 917.126 118.262 919.916 119.972C922.706 121.682 925.001 123.977 926.801 126.857C928.691 129.647 929.816 133.202 930.176 137.522H911.951C911.681 133.832 910.286 131.357 907.766 130.097C905.246 128.747 902.276 128.072 898.856 128.072C897.776 128.072 896.606 128.162 895.346 128.342C894.086 128.432 892.916 128.702 891.836 129.152C890.846 129.602 889.991 130.277 889.271 131.177C888.551 131.987 888.191 133.112 888.191 134.552C888.191 136.262 888.821 137.657 890.081 138.737C891.341 139.817 892.961 140.717 894.941 141.437C897.011 142.067 899.351 142.652 901.961 143.192C904.571 143.732 907.226 144.317 909.926 144.947C912.716 145.577 915.416 146.342 918.026 147.242C920.726 148.142 923.111 149.357 925.181 150.887C927.251 152.327 928.916 154.172 930.176 156.422C931.436 158.582 932.066 161.282 932.066 164.522C932.066 169.112 931.121 172.982 929.231 176.132C927.431 179.192 925.046 181.667 922.076 183.557C919.106 185.447 915.686 186.752 911.816 187.472C908.036 188.282 904.166 188.687 900.206 188.687C896.156 188.687 892.196 188.282 888.326 187.472C884.456 186.662 880.991 185.312 877.931 183.422C874.961 181.532 872.486 179.057 870.506 175.997C868.616 172.847 867.581 168.932 867.401 164.252H885.626ZM982.884 90.5418H1004.08V127.532H1043.09V90.5418H1064.29V186.932H1043.09V145.352H1004.08V186.932H982.884V90.5418ZM1080.11 138.602C1080.38 134.102 1081.51 130.367 1083.49 127.397C1085.47 124.427 1087.99 122.042 1091.05 120.242C1094.11 118.442 1097.53 117.182 1101.31 116.462C1105.18 115.652 1109.05 115.247 1112.92 115.247C1116.43 115.247 1119.98 115.517 1123.58 116.057C1127.18 116.507 1130.47 117.452 1133.44 118.892C1136.41 120.332 1138.84 122.357 1140.73 124.967C1142.62 127.487 1143.56 130.862 1143.56 135.092V171.407C1143.56 174.557 1143.74 177.572 1144.1 180.452C1144.46 183.332 1145.09 185.492 1145.99 186.932H1126.55C1126.19 185.852 1125.88 184.772 1125.61 183.692C1125.43 182.522 1125.29 181.352 1125.2 180.182C1122.14 183.332 1118.54 185.537 1114.4 186.797C1110.26 188.057 1106.03 188.687 1101.71 188.687C1098.38 188.687 1095.28 188.282 1092.4 187.472C1089.52 186.662 1087 185.402 1084.84 183.692C1082.68 181.982 1080.97 179.822 1079.71 177.212C1078.54 174.602 1077.95 171.497 1077.95 167.897C1077.95 163.937 1078.63 160.697 1079.98 158.177C1081.42 155.567 1083.22 153.497 1085.38 151.967C1087.63 150.437 1090.15 149.312 1092.94 148.592C1095.82 147.782 1098.7 147.152 1101.58 146.702C1104.46 146.252 1107.29 145.892 1110.08 145.622C1112.87 145.352 1115.35 144.947 1117.51 144.407C1119.67 143.867 1121.38 143.102 1122.64 142.112C1123.9 141.032 1124.48 139.502 1124.39 137.522C1124.39 135.452 1124.03 133.832 1123.31 132.662C1122.68 131.402 1121.78 130.457 1120.61 129.827C1119.53 129.107 1118.23 128.657 1116.7 128.477C1115.26 128.207 1113.68 128.072 1111.97 128.072C1108.19 128.072 1105.22 128.882 1103.06 130.502C1100.9 132.122 1099.64 134.822 1099.28 138.602H1080.11ZM1124.39 152.777C1123.58 153.497 1122.55 154.082 1121.29 154.532C1120.12 154.892 1118.81 155.207 1117.37 155.477C1116.02 155.747 1114.58 155.972 1113.05 156.152C1111.52 156.332 1109.99 156.557 1108.46 156.827C1107.02 157.097 1105.58 157.457 1104.14 157.907C1102.79 158.357 1101.58 158.987 1100.5 159.797C1099.51 160.517 1098.7 161.462 1098.07 162.632C1097.44 163.802 1097.12 165.287 1097.12 167.087C1097.12 168.797 1097.44 170.237 1098.07 171.407C1098.7 172.577 1099.55 173.522 1100.63 174.242C1101.71 174.872 1102.97 175.322 1104.41 175.592C1105.85 175.862 1107.34 175.997 1108.87 175.997C1112.65 175.997 1115.57 175.367 1117.64 174.107C1119.71 172.847 1121.24 171.362 1122.23 169.652C1123.22 167.852 1123.81 166.052 1123.99 164.252C1124.26 162.452 1124.39 161.012 1124.39 159.932V152.777ZM1197.05 186.932H1175.72L1151.83 117.137H1171.94L1186.66 164.792H1186.93L1201.64 117.137H1220.68L1197.05 186.932ZM1275.56 144.542C1274.66 139.682 1273.04 135.992 1270.7 133.472C1268.45 130.952 1264.98 129.692 1260.3 129.692C1257.24 129.692 1254.68 130.232 1252.61 131.312C1250.63 132.302 1249.01 133.562 1247.75 135.092C1246.58 136.622 1245.72 138.242 1245.18 139.952C1244.73 141.662 1244.46 143.192 1244.37 144.542H1275.56ZM1244.37 156.692C1244.64 162.902 1246.22 167.402 1249.1 170.192C1251.98 172.982 1256.12 174.377 1261.52 174.377C1265.39 174.377 1268.72 173.432 1271.51 171.542C1274.3 169.562 1276.01 167.492 1276.64 165.332H1293.51C1290.81 173.702 1286.67 179.687 1281.09 183.287C1275.51 186.887 1268.76 188.687 1260.84 188.687C1255.35 188.687 1250.4 187.832 1245.99 186.122C1241.58 184.322 1237.85 181.802 1234.79 178.562C1231.73 175.322 1229.34 171.452 1227.63 166.952C1226.01 162.452 1225.2 157.502 1225.2 152.102C1225.2 146.882 1226.06 142.022 1227.77 137.522C1229.48 133.022 1231.91 129.152 1235.06 125.912C1238.21 122.582 1241.94 119.972 1246.26 118.082C1250.67 116.192 1255.53 115.247 1260.84 115.247C1266.78 115.247 1271.96 116.417 1276.37 118.757C1280.78 121.007 1284.38 124.067 1287.17 127.937C1290.05 131.807 1292.12 136.217 1293.38 141.167C1294.64 146.117 1295.09 151.292 1294.73 156.692H1244.37ZM1306.1 117.137H1324.32V126.857H1324.73C1327.16 122.807 1330.31 119.882 1334.18 118.082C1338.05 116.192 1342.01 115.247 1346.06 115.247C1351.19 115.247 1355.37 115.967 1358.61 117.407C1361.94 118.757 1364.55 120.692 1366.44 123.212C1368.33 125.642 1369.64 128.657 1370.36 132.257C1371.17 135.767 1371.57 139.682 1371.57 144.002V186.932H1352.4V147.512C1352.4 141.752 1351.5 137.477 1349.7 134.687C1347.9 131.807 1344.71 130.367 1340.12 130.367C1334.9 130.367 1331.12 131.942 1328.78 135.092C1326.44 138.152 1325.27 143.237 1325.27 150.347V186.932H1306.1V117.137Z" fill="black"/>
<path d="M612.014 300.357C615.514 301.657 618.139 303.507 619.889 305.907C621.689 308.307 622.589 311.157 622.589 314.457C622.589 319.057 620.914 322.882 617.564 325.932C614.264 328.932 609.939 330.432 604.589 330.432H589.214V275.532H600.389C606.189 275.532 610.589 276.732 613.589 279.132C616.639 281.482 618.164 284.857 618.164 289.257C618.164 294.057 616.114 297.757 612.014 300.357ZM595.589 298.032H598.139C602.639 298.032 605.989 297.332 608.189 295.932C610.439 294.532 611.564 292.307 611.564 289.257C611.564 284.307 608.139 281.832 601.289 281.832H595.589V298.032ZM595.589 324.132H601.739C605.589 324.132 608.389 323.757 610.139 323.007C611.889 322.257 613.289 321.107 614.339 319.557C615.389 318.007 615.914 316.432 615.914 314.832C615.914 313.232 615.589 311.832 614.939 310.632C614.339 309.382 613.414 308.282 612.164 307.332C610.964 306.382 609.464 305.682 607.664 305.232C605.914 304.732 602.714 304.482 598.064 304.482H595.589V324.132ZM685.83 311.082H649.98C650.23 315.582 651.73 319.207 654.48 321.957C657.28 324.657 660.605 326.007 664.455 326.007C671.005 326.007 676.005 322.782 679.455 316.332L684.705 319.032C682.355 323.382 679.58 326.607 676.38 328.707C673.18 330.757 669.355 331.782 664.905 331.782C658.755 331.782 653.68 329.682 649.68 325.482C645.68 321.232 643.68 316.132 643.68 310.182C643.68 304.232 645.68 299.132 649.68 294.882C653.73 290.632 658.73 288.507 664.68 288.507C670.63 288.507 675.605 290.532 679.605 294.582C683.605 298.582 685.68 304.082 685.83 311.082ZM678.93 305.607C678.18 302.107 676.48 299.382 673.83 297.432C671.18 295.482 668.13 294.507 664.68 294.507C657.68 294.507 653.03 298.207 650.73 305.607H678.93ZM749.31 330.432H743.235V324.432C738.785 329.332 733.66 331.782 727.86 331.782C722.06 331.782 717.085 329.657 712.935 325.407C708.835 321.107 706.785 316.007 706.785 310.107C706.785 304.157 708.86 299.082 713.01 294.882C717.16 290.632 722.21 288.507 728.16 288.507C734.16 288.507 739.185 290.932 743.235 295.782V289.557H749.31V330.432ZM728.31 326.007C732.46 326.007 736.035 324.507 739.035 321.507C742.035 318.507 743.535 314.782 743.535 310.332C743.535 305.832 742.06 302.082 739.11 299.082C736.16 296.032 732.535 294.507 728.235 294.507C723.985 294.507 720.385 296.082 717.435 299.232C714.485 302.332 713.01 306.007 713.01 310.257C713.01 314.507 714.51 318.207 717.51 321.357C720.51 324.457 724.11 326.007 728.31 326.007ZM809.281 330.432H803.056V324.282C799.006 329.082 794.206 331.482 788.656 331.482C785.706 331.482 783.031 330.732 780.631 329.232C778.231 327.682 776.431 325.582 775.231 322.932C774.031 320.232 773.431 316.107 773.431 310.557V289.557H779.581V309.057C779.581 313.557 779.781 316.632 780.181 318.282C780.631 319.882 781.256 321.257 782.056 322.407C782.906 323.507 783.956 324.332 785.206 324.882C786.506 325.432 788.056 325.707 789.856 325.707C791.706 325.707 793.506 325.257 795.256 324.357C797.006 323.457 798.506 322.207 799.756 320.607C801.006 319.007 801.856 317.307 802.306 315.507C802.806 313.707 803.056 310.107 803.056 304.707V289.557H809.281V330.432ZM852.736 294.957H844.636V323.607C844.636 324.657 844.786 325.307 845.086 325.557C845.386 325.757 846.136 325.857 847.336 325.857H850.936V331.182C848.536 331.582 846.711 331.782 845.461 331.782C843.061 331.782 841.286 331.207 840.136 330.057C838.986 328.857 838.411 326.982 838.411 324.432V294.957H831.361V289.557H838.411V274.182H844.636V289.557H852.736V294.957ZM875.901 274.182C877.251 274.182 878.376 274.657 879.276 275.607C880.226 276.507 880.701 277.632 880.701 278.982C880.701 280.282 880.226 281.407 879.276 282.357C878.376 283.257 877.251 283.707 875.901 283.707C874.601 283.707 873.476 283.232 872.526 282.282C871.626 281.332 871.176 280.232 871.176 278.982C871.176 277.682 871.626 276.557 872.526 275.607C873.476 274.657 874.601 274.182 875.901 274.182ZM879.051 330.432H872.826V289.557H879.051V330.432ZM920.316 281.532C917.916 280.532 916.041 280.032 914.691 280.032C913.341 280.032 912.466 280.482 912.066 281.382C911.666 282.232 911.466 283.682 911.466 285.732V289.557H919.791V294.957H911.466V330.432H905.241V294.957H900.066V289.557H905.241V284.907C905.241 281.207 905.916 278.507 907.266 276.807C908.666 275.057 910.841 274.182 913.791 274.182C915.391 274.182 917.566 274.557 920.316 275.307V281.532ZM975.925 330.432H969.7V324.282C965.65 329.082 960.85 331.482 955.3 331.482C952.35 331.482 949.675 330.732 947.275 329.232C944.875 327.682 943.075 325.582 941.875 322.932C940.675 320.232 940.075 316.107 940.075 310.557V289.557H946.225V309.057C946.225 313.557 946.425 316.632 946.825 318.282C947.275 319.882 947.9 321.257 948.7 322.407C949.55 323.507 950.6 324.332 951.85 324.882C953.15 325.432 954.7 325.707 956.5 325.707C958.35 325.707 960.15 325.257 961.9 324.357C963.65 323.457 965.15 322.207 966.4 320.607C967.65 319.007 968.5 317.307 968.95 315.507C969.45 313.707 969.7 310.107 969.7 304.707V289.557H975.925V330.432ZM1005.95 330.432H999.804V274.182H1005.95V330.432ZM1088.92 281.832H1076.92V330.432H1070.39V281.832H1058.32V275.532H1088.92V281.832ZM1144.85 330.432H1138.63V310.932C1138.63 307.132 1138.5 304.457 1138.25 302.907C1138.05 301.357 1137.55 299.907 1136.75 298.557C1135.95 297.157 1134.85 296.107 1133.45 295.407C1132.1 294.657 1130.45 294.282 1128.5 294.282C1126.6 294.282 1124.78 294.732 1123.03 295.632C1121.28 296.532 1119.78 297.782 1118.53 299.382C1117.28 300.982 1116.4 302.682 1115.9 304.482C1115.45 306.282 1115.23 309.882 1115.23 315.282V330.432H1109V274.182H1115.23V295.707C1119.28 290.907 1124.08 288.507 1129.63 288.507C1132.58 288.507 1135.25 289.282 1137.65 290.832C1140.05 292.332 1141.85 294.432 1143.05 297.132C1144.25 299.782 1144.85 303.882 1144.85 309.432V330.432ZM1171.35 274.182C1172.7 274.182 1173.83 274.657 1174.73 275.607C1175.68 276.507 1176.15 277.632 1176.15 278.982C1176.15 280.282 1175.68 281.407 1174.73 282.357C1173.83 283.257 1172.7 283.707 1171.35 283.707C1170.05 283.707 1168.93 283.232 1167.98 282.282C1167.08 281.332 1166.63 280.232 1166.63 278.982C1166.63 277.682 1167.08 276.557 1167.98 275.607C1168.93 274.657 1170.05 274.182 1171.35 274.182ZM1174.5 330.432H1168.28V289.557H1174.5V330.432ZM1234.14 330.432H1227.99V310.932C1227.99 306.432 1227.77 303.382 1227.32 301.782C1226.92 300.132 1226.29 298.757 1225.44 297.657C1224.64 296.507 1223.59 295.657 1222.29 295.107C1221.04 294.557 1219.49 294.282 1217.64 294.282C1215.84 294.282 1214.07 294.732 1212.32 295.632C1210.57 296.532 1209.07 297.782 1207.82 299.382C1206.57 300.982 1205.69 302.682 1205.19 304.482C1204.74 306.282 1204.52 309.882 1204.52 315.282V330.432H1198.29V289.557H1204.52V295.707C1208.57 290.907 1213.37 288.507 1218.92 288.507C1221.87 288.507 1224.54 289.282 1226.94 290.832C1229.34 292.332 1231.14 294.432 1232.34 297.132C1233.54 299.782 1234.14 303.882 1234.14 309.432V330.432ZM1299.2 320.832C1299.2 326.232 1298.72 330.232 1297.77 332.832C1296.87 335.432 1295.47 337.632 1293.57 339.432C1291.72 341.232 1289.47 342.582 1286.82 343.482C1284.22 344.432 1281.35 344.907 1278.2 344.907C1267.55 344.907 1260.45 340.407 1256.9 331.407H1263.5C1266.4 336.607 1271.22 339.207 1277.97 339.207C1281.07 339.207 1283.85 338.607 1286.3 337.407C1288.75 336.207 1290.47 334.607 1291.47 332.607C1292.47 330.607 1292.97 327.532 1292.97 323.382V323.007C1291.02 325.207 1288.67 326.882 1285.92 328.032C1283.17 329.182 1280.32 329.757 1277.37 329.757C1271.47 329.757 1266.52 327.732 1262.52 323.682C1258.57 319.632 1256.62 314.857 1256.67 309.357C1256.62 303.607 1258.7 298.707 1262.9 294.657C1267.1 290.557 1272.07 288.507 1277.82 288.507C1283.62 288.507 1288.67 290.857 1292.97 295.557V289.557H1299.2V320.832ZM1293.2 309.357C1293.2 305.057 1291.75 301.507 1288.85 298.707C1286 295.907 1282.5 294.507 1278.35 294.507C1273.95 294.507 1270.25 296.032 1267.25 299.082C1264.3 302.082 1262.82 305.582 1262.82 309.582C1262.82 313.582 1264.25 316.982 1267.1 319.782C1269.95 322.532 1273.6 323.907 1278.05 323.907C1282.5 323.907 1286.12 322.557 1288.92 319.857C1291.77 317.107 1293.2 313.607 1293.2 309.357ZM1344.33 294.357L1340.36 298.482C1337.41 295.732 1334.71 294.357 1332.26 294.357C1330.71 294.357 1329.41 294.857 1328.36 295.857C1327.31 296.807 1326.78 298.007 1326.78 299.457C1326.78 300.857 1327.36 302.107 1328.51 303.207C1329.71 304.257 1331.81 305.582 1334.81 307.182C1337.81 308.732 1340.11 310.457 1341.71 312.357C1343.36 314.257 1344.18 316.582 1344.18 319.332C1344.18 322.832 1342.96 325.782 1340.51 328.182C1338.11 330.582 1335.13 331.782 1331.58 331.782C1326.63 331.782 1322.51 329.682 1319.21 325.482L1323.11 321.132C1325.81 324.282 1328.56 325.857 1331.36 325.857C1333.26 325.857 1334.88 325.232 1336.23 323.982C1337.58 322.732 1338.26 321.282 1338.26 319.632C1338.26 317.932 1337.63 316.532 1336.38 315.432C1335.18 314.282 1333.08 312.957 1330.08 311.457C1327.13 309.957 1324.88 308.307 1323.33 306.507C1321.83 304.657 1321.08 302.257 1321.08 299.307C1321.08 296.307 1322.16 293.757 1324.31 291.657C1326.51 289.557 1329.38 288.507 1332.93 288.507C1336.53 288.507 1340.33 290.457 1344.33 294.357ZM589.236 406.357C592.736 407.657 595.361 409.507 597.111 411.907C598.911 414.307 599.811 417.157 599.811 420.457C599.811 425.057 598.136 428.882 594.786 431.932C591.486 434.932 587.161 436.432 581.811 436.432H566.436V381.532H577.611C583.411 381.532 587.811 382.732 590.811 385.132C593.861 387.482 595.386 390.857 595.386 395.257C595.386 400.057 593.336 403.757 589.236 406.357ZM572.811 404.032H575.361C579.861 404.032 583.211 403.332 585.411 401.932C587.661 400.532 588.786 398.307 588.786 395.257C588.786 390.307 585.361 387.832 578.511 387.832H572.811V404.032ZM572.811 430.132H578.961C582.811 430.132 585.611 429.757 587.361 429.007C589.111 428.257 590.511 427.107 591.561 425.557C592.611 424.007 593.136 422.432 593.136 420.832C593.136 419.232 592.811 417.832 592.161 416.632C591.561 415.382 590.636 414.282 589.386 413.332C588.186 412.382 586.686 411.682 584.886 411.232C583.136 410.732 579.936 410.482 575.286 410.482H572.811V430.132ZM663.052 417.082H627.202C627.452 421.582 628.952 425.207 631.702 427.957C634.502 430.657 637.827 432.007 641.677 432.007C648.227 432.007 653.227 428.782 656.677 422.332L661.927 425.032C659.577 429.382 656.802 432.607 653.602 434.707C650.402 436.757 646.577 437.782 642.127 437.782C635.977 437.782 630.902 435.682 626.902 431.482C622.902 427.232 620.902 422.132 620.902 416.182C620.902 410.232 622.902 405.132 626.902 400.882C630.952 396.632 635.952 394.507 641.902 394.507C647.852 394.507 652.827 396.532 656.827 400.582C660.827 404.582 662.902 410.082 663.052 417.082ZM656.152 411.607C655.402 408.107 653.702 405.382 651.052 403.432C648.402 401.482 645.352 400.507 641.902 400.507C634.902 400.507 630.252 404.207 627.952 411.607H656.152ZM726.531 436.432H720.456V430.432C716.006 435.332 710.881 437.782 705.081 437.782C699.281 437.782 694.306 435.657 690.156 431.407C686.056 427.107 684.006 422.007 684.006 416.107C684.006 410.157 686.081 405.082 690.231 400.882C694.381 396.632 699.431 394.507 705.381 394.507C711.381 394.507 716.406 396.932 720.456 401.782V395.557H726.531V436.432ZM705.531 432.007C709.681 432.007 713.256 430.507 716.256 427.507C719.256 424.507 720.756 420.782 720.756 416.332C720.756 411.832 719.281 408.082 716.331 405.082C713.381 402.032 709.756 400.507 705.456 400.507C701.206 400.507 697.606 402.082 694.656 405.232C691.706 408.332 690.231 412.007 690.231 416.257C690.231 420.507 691.731 424.207 694.731 427.357C697.731 430.457 701.331 432.007 705.531 432.007ZM786.503 436.432H780.278V430.282C776.228 435.082 771.428 437.482 765.878 437.482C762.928 437.482 760.253 436.732 757.853 435.232C755.453 433.682 753.653 431.582 752.453 428.932C751.253 426.232 750.653 422.107 750.653 416.557V395.557H756.803V415.057C756.803 419.557 757.003 422.632 757.403 424.282C757.853 425.882 758.478 427.257 759.278 428.407C760.128 429.507 761.178 430.332 762.428 430.882C763.728 431.432 765.278 431.707 767.078 431.707C768.928 431.707 770.728 431.257 772.478 430.357C774.228 429.457 775.728 428.207 776.978 426.607C778.228 425.007 779.078 423.307 779.528 421.507C780.028 419.707 780.278 416.107 780.278 410.707V395.557H786.503V436.432ZM829.958 400.957H821.858V429.607C821.858 430.657 822.008 431.307 822.308 431.557C822.608 431.757 823.358 431.857 824.558 431.857H828.158V437.182C825.758 437.582 823.933 437.782 822.683 437.782C820.283 437.782 818.508 437.207 817.358 436.057C816.208 434.857 815.633 432.982 815.633 430.432V400.957H808.583V395.557H815.633V380.182H821.858V395.557H829.958V400.957ZM853.123 380.182C854.473 380.182 855.598 380.657 856.498 381.607C857.448 382.507 857.923 383.632 857.923 384.982C857.923 386.282 857.448 387.407 856.498 388.357C855.598 389.257 854.473 389.707 853.123 389.707C851.823 389.707 850.698 389.232 849.748 388.282C848.848 387.332 848.398 386.232 848.398 384.982C848.398 383.682 848.848 382.557 849.748 381.607C850.698 380.657 851.823 380.182 853.123 380.182ZM856.273 436.432H850.048V395.557H856.273V436.432ZM897.537 387.532C895.137 386.532 893.262 386.032 891.912 386.032C890.562 386.032 889.687 386.482 889.287 387.382C888.887 388.232 888.687 389.682 888.687 391.732V395.557H897.012V400.957H888.687V436.432H882.462V400.957H877.287V395.557H882.462V390.907C882.462 387.207 883.137 384.507 884.487 382.807C885.887 381.057 888.062 380.182 891.012 380.182C892.612 380.182 894.787 380.557 897.537 381.307V387.532ZM953.146 436.432H946.921V430.282C942.871 435.082 938.071 437.482 932.521 437.482C929.571 437.482 926.896 436.732 924.496 435.232C922.096 433.682 920.296 431.582 919.096 428.932C917.896 426.232 917.296 422.107 917.296 416.557V395.557H923.446V415.057C923.446 419.557 923.646 422.632 924.046 424.282C924.496 425.882 925.121 427.257 925.921 428.407C926.771 429.507 927.821 430.332 929.071 430.882C930.371 431.432 931.921 431.707 933.721 431.707C935.571 431.707 937.371 431.257 939.121 430.357C940.871 429.457 942.371 428.207 943.621 426.607C944.871 425.007 945.721 423.307 946.171 421.507C946.671 419.707 946.921 416.107 946.921 410.707V395.557H953.146V436.432ZM983.176 436.432H977.026V380.182H983.176V436.432ZM1046.57 436.432H1040.12V381.532H1046.57V436.432ZM1131.81 436.432H1125.51V414.157C1125.51 410.607 1125.28 408.007 1124.83 406.357C1124.43 404.707 1123.51 403.332 1122.06 402.232C1120.66 401.082 1118.78 400.507 1116.43 400.507C1114.13 400.507 1111.96 401.257 1109.91 402.757C1107.86 404.257 1106.43 406.307 1105.63 408.907C1104.83 411.457 1104.43 415.257 1104.43 420.307V436.432H1098.36V415.507C1098.36 411.407 1098.13 408.457 1097.68 406.657C1097.28 404.857 1096.36 403.382 1094.91 402.232C1093.46 401.082 1091.63 400.507 1089.43 400.507C1087.23 400.507 1085.13 401.207 1083.13 402.607C1081.18 403.957 1079.73 405.757 1078.78 408.007C1077.83 410.207 1077.36 413.882 1077.36 419.032V436.432H1071.21V395.557H1077.36V401.332C1080.86 396.782 1085.23 394.507 1090.48 394.507C1093.33 394.507 1095.91 395.282 1098.21 396.832C1100.56 398.332 1102.23 400.482 1103.23 403.282C1104.93 400.432 1107.06 398.257 1109.61 396.757C1112.16 395.257 1114.86 394.507 1117.71 394.507C1121.61 394.507 1124.93 395.882 1127.68 398.632C1130.43 401.382 1131.81 406.557 1131.81 414.157V436.432ZM1162.07 401.782C1166.12 396.932 1171.12 394.507 1177.07 394.507C1183.02 394.507 1188.07 396.632 1192.22 400.882C1196.37 405.082 1198.45 410.157 1198.45 416.107C1198.45 422.057 1196.4 427.157 1192.3 431.407C1188.2 435.657 1183.25 437.782 1177.45 437.782C1171.65 437.782 1166.52 435.332 1162.07 430.432V450.907H1155.92V395.557H1162.07V401.782ZM1177.07 432.007C1181.17 432.007 1184.72 430.482 1187.72 427.432C1190.77 424.332 1192.3 420.607 1192.3 416.257C1192.3 411.907 1190.8 408.207 1187.8 405.157C1184.85 402.057 1181.22 400.507 1176.92 400.507C1172.62 400.507 1169 402.032 1166.05 405.082C1163.15 408.082 1161.7 411.807 1161.7 416.257C1161.7 420.707 1163.2 424.457 1166.2 427.507C1169.2 430.507 1172.82 432.007 1177.07 432.007ZM1261.94 436.432H1255.87V430.432C1251.42 435.332 1246.29 437.782 1240.49 437.782C1234.69 437.782 1229.72 435.657 1225.57 431.407C1221.47 427.107 1219.42 422.007 1219.42 416.107C1219.42 410.157 1221.49 405.082 1225.64 400.882C1229.79 396.632 1234.84 394.507 1240.79 394.507C1246.79 394.507 1251.82 396.932 1255.87 401.782V395.557H1261.94V436.432ZM1240.94 432.007C1245.09 432.007 1248.67 430.507 1251.67 427.507C1254.67 424.507 1256.17 420.782 1256.17 416.332C1256.17 411.832 1254.69 408.082 1251.74 405.082C1248.79 402.032 1245.17 400.507 1240.87 400.507C1236.62 400.507 1233.02 402.082 1230.07 405.232C1227.12 408.332 1225.64 412.007 1225.64 416.257C1225.64 420.507 1227.14 424.207 1230.14 427.357C1233.14 430.457 1236.74 432.007 1240.94 432.007ZM1326.64 428.107C1324.49 431.257 1321.66 433.657 1318.16 435.307C1314.71 436.957 1310.96 437.782 1306.91 437.782C1300.61 437.782 1295.34 435.707 1291.09 431.557C1286.89 427.407 1284.79 422.332 1284.79 416.332C1284.79 410.332 1286.91 405.207 1291.16 400.957C1295.41 396.657 1300.91 394.507 1307.66 394.507C1311.66 394.507 1315.34 395.382 1318.69 397.132C1322.09 398.882 1324.74 401.332 1326.64 404.482L1321.76 407.557C1318.11 402.807 1313.34 400.432 1307.44 400.432C1302.79 400.432 1298.89 401.932 1295.74 404.932C1292.59 407.882 1291.01 411.557 1291.01 415.957C1291.01 420.357 1292.56 424.132 1295.66 427.282C1298.76 430.432 1302.69 432.007 1307.44 432.007C1313.14 432.007 1317.94 429.607 1321.84 424.807L1326.64 428.107ZM1368.3 400.957H1360.2V429.607C1360.2 430.657 1360.35 431.307 1360.65 431.557C1360.95 431.757 1361.7 431.857 1362.9 431.857H1366.5V437.182C1364.1 437.582 1362.27 437.782 1361.02 437.782C1358.62 437.782 1356.85 437.207 1355.7 436.057C1354.55 434.857 1353.97 432.982 1353.97 430.432V400.957H1346.92V395.557H1353.97V380.182H1360.2V395.557H1368.3V400.957Z" fill="black"/>
</svg>
